<svg id="Capa_1" data-name="Capa 1" xmlns="http://www.w3.org/2000/svg" viewBox="0 0 512 512"><defs><style>.cls-1{fill:#fff;stroke:#fff;stroke-miterlimit:10;stroke-width:6px;}</style></defs><rect x="-0.32" y="-0.11" width="513" height="513"/><path class="cls-1" d="M310.3,240.58A90,90,0,0,0,246.48,267V214.16a90.3,90.3,0,1,0,0-127.78V35.89L220,47.93V187.6L104.41,72l.16,43.18L220,230.62v26.56L104.41,372.77,104.25,416,220,300.2V442.85l26.48,12V394.77A90.3,90.3,0,1,0,310.3,240.58Zm1.2-156.53a66.22,66.22,0,1,1-66.22,66.22A66.22,66.22,0,0,1,311.5,84.05Zm0,317.86a66.22,66.22,0,1,1,66.22-66.22A66.22,66.22,0,0,1,311.5,401.91Z"/></svg>