<svg id="Capa_1" data-name="Capa 1" xmlns="http://www.w3.org/2000/svg" viewBox="0 0 537 171"><defs><style>.cls-1,.cls-3{fill:#111;}.cls-2{fill:#d4a853;}.cls-3{stroke:#111;stroke-miterlimit:10;stroke-width:6px;}.cls-4{fill:#c49a3c;}</style></defs><path class="cls-1" d="M160.91,41.16c1.2.05,2.78.1,4.75.15s3.92.08,5.87.08q3.58,0,6.91-.08c2.22-.05,3.77-.07,4.67-.07q8.82,0,13.2,3.29A10.12,10.12,0,0,1,200.68,53a11.16,11.16,0,0,1-1.38,5.24,13.74,13.74,0,0,1-4.41,4.71A22.08,22.08,0,0,1,187,66.06v.14a27.8,27.8,0,0,1,10.43,2.66,13.53,13.53,0,0,1,5.49,4.86,11.39,11.39,0,0,1,1.65,5.87,13,13,0,0,1-2.36,7.81,14.67,14.67,0,0,1-6.8,5,29.26,29.26,0,0,1-10.58,1.72c-1.1,0-2.76,0-5-.11s-5-.12-8.15-.12c-2,0-4,0-6,0s-3.55.09-4.75.19v-1.5a14,14,0,0,0,3.7-.6,2.59,2.59,0,0,0,1.65-1.79,15,15,0,0,0,.41-4V49.09a14.9,14.9,0,0,0-.41-4.08,2.71,2.71,0,0,0-1.65-1.79,11.48,11.48,0,0,0-3.7-.56Zm20.93,1.5c-2,0-3.38.42-4,1.27s-.93,2.57-.93,5.16V86.16a14.24,14.24,0,0,0,.41,4,2.61,2.61,0,0,0,1.57,1.79,9.55,9.55,0,0,0,3.32.45q6.06,0,8.83-3.4t2.76-9.68q0-5.76-3-8.9t-9.76-3.14h-6.8V66h6.43a9.06,9.06,0,0,0,5.87-1.68,8.61,8.61,0,0,0,2.84-4.49,22.33,22.33,0,0,0,.78-6c0-3.69-.64-6.47-1.94-8.34S184.83,42.66,181.84,42.66Z"/><path class="cls-1" d="M224.3,41.16c1.25.05,2.84.1,4.79.15s3.88.08,5.83.08q3.66,0,7-.08c2.19-.05,3.74-.07,4.63-.07a32.59,32.59,0,0,1,11.1,1.6,13.86,13.86,0,0,1,6.55,4.53,11.21,11.21,0,0,1,2.16,6.87,14.21,14.21,0,0,1-1,5A12.37,12.37,0,0,1,262,64a18.35,18.35,0,0,1-6.54,3.55A34.15,34.15,0,0,1,244.86,69h-7.18V67.48h6.43c3.14,0,5.54-.57,7.22-1.69a8.15,8.15,0,0,0,3.36-4.48,21.35,21.35,0,0,0,.86-6.24q0-5.91-2.32-9.16t-8-3.25c-2,0-3.37.42-4,1.27s-.93,2.57-.93,5.16V86.16a13.58,13.58,0,0,0,.45,4A2.67,2.67,0,0,0,242.43,92a13.65,13.65,0,0,0,3.63.6v1.5c-1.25-.1-2.85-.16-4.79-.19s-3.91,0-5.9,0c-2.25,0-4.34,0-6.28,0s-3.54.09-4.79.19v-1.5A13.89,13.89,0,0,0,228,92a2.59,2.59,0,0,0,1.65-1.79,15,15,0,0,0,.41-4V49.09a14.9,14.9,0,0,0-.41-4.08A2.71,2.71,0,0,0,228,43.22a11.43,11.43,0,0,0-3.7-.56ZM237.68,67.7q3.51.15,5.87.34l4,.33c1.12.1,2.13.23,3,.38q6.21.6,9.16,2.87a11.29,11.29,0,0,1,3.93,6.92l1.72,7.7a15.49,15.49,0,0,0,1.45,4.37,2.38,2.38,0,0,0,2.28,1.24,2.89,2.89,0,0,0,1.8-.57,7.78,7.78,0,0,0,1.49-1.53l1.05.9a12.82,12.82,0,0,1-4,3.4,11.56,11.56,0,0,1-5.31,1.08,10.48,10.48,0,0,1-6.05-1.68q-2.48-1.68-3.37-6.39l-1.42-7.47A45.67,45.67,0,0,0,252,74.05a9.28,9.28,0,0,0-2.13-3.73,5.37,5.37,0,0,0-4-1.35h-8.08Z"/><path class="cls-1" d="M313.56,40.94l18.16,46.87a9.07,9.07,0,0,0,2.43,3.7,4.6,4.6,0,0,0,2.43,1.08v1.5c-1.3-.1-2.85-.16-4.67-.19s-3.68,0-5.57,0c-2.19,0-4.24,0-6.13,0s-3.44.09-4.63.19v-1.5c2.54-.1,4.16-.53,4.86-1.31s.54-2.43-.45-5L306.83,50.8l1.34-1.64-12,31a27.89,27.89,0,0,0-1.71,6.13,6.61,6.61,0,0,0,.37,3.74A3.85,3.85,0,0,0,297.11,92a13.06,13.06,0,0,0,3.89.63v1.5c-1.6-.1-3.14-.16-4.64-.19s-3,0-4.48,0c-1.1,0-2.13,0-3.1,0a25.41,25.41,0,0,0-2.58.19v-1.5a6.94,6.94,0,0,0,3.25-1.94,15.77,15.77,0,0,0,3.1-5.46l17.12-44.25c.6.05,1.25.07,1.94.07S313,41,313.56,40.94Zm6.5,31.62v1.49H297.78l.75-1.49Z"/><path class="cls-1" d="M392.72,41.16v1.5a7.35,7.35,0,0,0-3.14,2.28A27.6,27.6,0,0,0,386,50.58L371.57,79.21H368.8L351.31,46.92a10.94,10.94,0,0,0-2.47-3.4,3.23,3.23,0,0,0-1.87-.79V41.16c1.2.05,2.46.11,3.78.19s2.75.11,4.3.11q3,0,6.42-.07t6.43-.23v1.57a17.2,17.2,0,0,0-3.36.3,2.72,2.72,0,0,0-2,1.27c-.35.65-.22,1.6.38,2.84L375,70.32l-1.8,2.09,8.52-16.9q2.47-4.92,2.58-7.7a4.18,4.18,0,0,0-1.57-3.92A8.69,8.69,0,0,0,378,42.66v-1.5l4.67.15c1.47,0,2.92.08,4.37.08,1.2,0,2.26,0,3.18-.08ZM376.13,68.67V86.16a13.58,13.58,0,0,0,.45,4A2.63,2.63,0,0,0,378.26,92a13.64,13.64,0,0,0,3.62.6v1.5c-1.24-.1-2.86-.16-4.86-.19s-4,0-6,0-4.2,0-6.16,0-3.55.09-4.75.19v-1.5a14,14,0,0,0,3.7-.6,2.55,2.55,0,0,0,1.64-1.79,14.5,14.5,0,0,0,.42-4V70.84l5.68,4.63Z"/><path class="cls-1" d="M430.77,40.94l18.17,46.87a9,9,0,0,0,2.43,3.7,4.6,4.6,0,0,0,2.43,1.08v1.5c-1.3-.1-2.86-.16-4.68-.19s-3.67,0-5.56,0c-2.2,0-4.24,0-6.14,0s-3.43.09-4.63.19v-1.5c2.54-.1,4.16-.53,4.86-1.31s.55-2.43-.45-5L424,50.8l1.35-1.64-12,31a28,28,0,0,0-1.72,6.13,6.7,6.7,0,0,0,.37,3.74A3.84,3.84,0,0,0,414.33,92a13,13,0,0,0,3.88.63v1.5c-1.59-.1-3.14-.16-4.63-.19s-3,0-4.49,0c-1.09,0-2.13,0-3.1,0a25.87,25.87,0,0,0-2.58.19v-1.5a6.89,6.89,0,0,0,3.25-1.94,15.77,15.77,0,0,0,3.11-5.46l17.11-44.25c.6.05,1.25.07,1.95.07S430.17,41,430.77,40.94Zm6.51,31.62v1.49H415l.75-1.49Z"/><path class="cls-1" d="M518,41.16v1.5a7.86,7.86,0,0,0-3.66,1.08,4.15,4.15,0,0,0-1.68,2.69,24.79,24.79,0,0,0-.41,5.2V94.31a13.36,13.36,0,0,0-1.46-.07c-.53,0-1.09,0-1.69.07L477.05,50.73V83a26.62,26.62,0,0,0,.44,5.57,4.1,4.1,0,0,0,2,2.84,12.23,12.23,0,0,0,4.68,1.16v1.5c-.95-.1-2.17-.16-3.67-.19s-2.91,0-4.26,0c-1.19,0-2.4,0-3.62,0s-2.23.09-3,.19v-1.5a8.66,8.66,0,0,0,3.7-1.12,4.1,4.1,0,0,0,1.64-2.69,24.64,24.64,0,0,0,.42-5.16V49.09a14.43,14.43,0,0,0-.42-4.08,2.67,2.67,0,0,0-1.64-1.79,11.48,11.48,0,0,0-3.7-.56v-1.5q1.2.08,3,.15c1.22,0,2.43.08,3.62.08s2.27,0,3.37-.08l2.91-.15,28,37.3V52.23a26.6,26.6,0,0,0-.44-5.61,4.24,4.24,0,0,0-1.95-2.84,11,11,0,0,0-4.71-1.12v-1.5c.95.05,2.18.1,3.7.15s2.93.08,4.23.08,2.48,0,3.7-.08S517.26,41.21,518,41.16Z"/><rect class="cls-2" x="20.68" y="18.89" width="129" height="129"/><path class="cls-3" d="M95.12,80.5a21.14,21.14,0,0,0-15,6.21V74.29a21.24,21.24,0,1,0,0-30.05V32.37L73.89,35.2V68L46.71,40.86l0,10.16L73.89,78.16V84.4L46.71,111.58l0,10.16L73.89,94.52v33.54l6.23,2.83V116.75a21.23,21.23,0,1,0,15-36.25Zm.28-36.81A15.58,15.58,0,1,1,79.83,59.27,15.58,15.58,0,0,1,95.4,43.69Zm0,74.74A15.57,15.57,0,1,1,111,102.86,15.57,15.57,0,0,1,95.4,118.43Z"/><path class="cls-4" d="M198.56,102.39l1.79.06c.74,0,1.47,0,2.19,0,1,0,2,0,2.93,0l2,0a8,8,0,0,1,5.15,1.43,4.57,4.57,0,0,1,1.72,3.68,5.65,5.65,0,0,1-.47,2.23,5.46,5.46,0,0,1-1.56,2,8.56,8.56,0,0,1-2.92,1.45v.06a10.06,10.06,0,0,1,4,1.22,5.23,5.23,0,0,1,2,2.1,5.73,5.73,0,0,1,.58,2.54,5.8,5.8,0,0,1-.93,3.27,6.14,6.14,0,0,1-2.68,2.23,10,10,0,0,1-4.2.82c-.48,0-1.19,0-2.15,0s-2.1,0-3.45,0h-2.25c-.73,0-1.33,0-1.79.09v-.66a6.57,6.57,0,0,0,1.68-.26,1.18,1.18,0,0,0,.77-.78,5.94,5.94,0,0,0,.19-1.76V105.84a6,6,0,0,0-.19-1.78,1.24,1.24,0,0,0-.77-.78,5.56,5.56,0,0,0-1.68-.24Zm8.08.65a2.55,2.55,0,0,0-2,.55,3.85,3.85,0,0,0-.45,2.25V122a5.85,5.85,0,0,0,.19,1.73,1.17,1.17,0,0,0,.72.78,4.59,4.59,0,0,0,1.53.2c2.13,0,3.67-.5,4.64-1.48a5.82,5.82,0,0,0,1.45-4.22,5.27,5.27,0,0,0-1.35-3.87c-.9-.92-2.38-1.37-4.45-1.37h-3.35v-.55h2.8a5.07,5.07,0,0,0,3-.74,3.68,3.68,0,0,0,1.43-1.95,8.56,8.56,0,0,0,.4-2.62,5.42,5.42,0,0,0-1.06-3.63A4.43,4.43,0,0,0,206.64,103Z"/><path class="cls-4" d="M260.32,102.23l7.94,20.47a3.52,3.52,0,0,0,1.11,1.65,2.35,2.35,0,0,0,1.14.43v.66c-.44,0-1-.07-1.6-.09h-4.26c-.74,0-1.34,0-1.79.09v-.66a3.12,3.12,0,0,0,2.11-.57c.31-.33.24-1-.19-2.16l-6.06-16.18.52-.42-5.66,14.71a8.8,8.8,0,0,0-.62,2.2,2.55,2.55,0,0,0,.18,1.42,1.59,1.59,0,0,0,.94.74,5.59,5.59,0,0,0,1.68.26v.66c-.61,0-1.24-.07-1.9-.09h-3.23c-.38,0-.73,0-1,.09v-.66a3.21,3.21,0,0,0,1.33-.76,5.14,5.14,0,0,0,1.24-2.07l7.65-19.72h.52Zm4,13.83v.65h-9.7l.32-.65Z"/><path class="cls-4" d="M303.58,102.39l1.79.06c.74,0,1.47,0,2.18,0,1,0,2,0,2.93,0l2,0a11.11,11.11,0,0,1,4.38.75,5.78,5.78,0,0,1,2.6,2,5,5,0,0,1,.86,2.88,6.29,6.29,0,0,1-.39,2.09,5.63,5.63,0,0,1-1.35,2.08,7.18,7.18,0,0,1-2.62,1.61,11.71,11.71,0,0,1-4.2.64h-3.12v-.65h2.8a6.92,6.92,0,0,0,3.53-.74,3.7,3.7,0,0,0,1.66-2,8,8,0,0,0,.44-2.72,6,6,0,0,0-1.22-4c-.82-.94-2.21-1.41-4.19-1.41a2.53,2.53,0,0,0-1.95.55,3.85,3.85,0,0,0-.45,2.25V122a5.94,5.94,0,0,0,.19,1.76,1.18,1.18,0,0,0,.77.78,6.47,6.47,0,0,0,1.67.26v.66c-.5,0-1.12-.07-1.87-.09h-4.64c-.74,0-1.33,0-1.79.09v-.66a6.57,6.57,0,0,0,1.68-.26,1.16,1.16,0,0,0,.76-.78,5.88,5.88,0,0,0,.2-1.76V105.84a5.94,5.94,0,0,0-.2-1.78,1.23,1.23,0,0,0-.76-.78,5.56,5.56,0,0,0-1.68-.24Zm5.18,11.55q1.75.07,2.76.15c.68.06,1.23.1,1.65.15s.83.09,1.22.16a5.7,5.7,0,0,1,3.14,1.32,6.06,6.06,0,0,1,1.42,3l.81,3.32a8.78,8.78,0,0,0,.67,2.06,1.07,1.07,0,0,0,1.06.61,1.48,1.48,0,0,0,.92-.36,6,6,0,0,0,.8-.88l.49.36a6.13,6.13,0,0,1-1.42,1.54,3.82,3.82,0,0,1-4.18-.17,4.87,4.87,0,0,1-1.37-2.8l-.71-3.26a18.85,18.85,0,0,0-.67-2.43,3.91,3.91,0,0,0-1-1.61,2.91,2.91,0,0,0-2-.58h-3.52Z"/><path class="cls-4" d="M357.23,102.39l1.79.06c.74,0,1.46,0,2.18,0,1,0,2,0,2.93,0l2,0a7.94,7.94,0,0,1,5.14,1.43,4.57,4.57,0,0,1,1.72,3.68,5.48,5.48,0,0,1-.47,2.23,5.25,5.25,0,0,1-1.56,2A8.6,8.6,0,0,1,368,113.2v.06a10.16,10.16,0,0,1,4,1.22,5.26,5.26,0,0,1,2,2.1,5.74,5.74,0,0,1,.59,2.54,5.8,5.8,0,0,1-.93,3.27,6.17,6.17,0,0,1-2.69,2.23,10,10,0,0,1-4.2.82c-.47,0-1.19,0-2.14,0s-2.11,0-3.46,0H359c-.74,0-1.34,0-1.79.09v-.66a6.64,6.64,0,0,0,1.68-.26,1.18,1.18,0,0,0,.76-.78,5.88,5.88,0,0,0,.2-1.76V105.84a5.94,5.94,0,0,0-.2-1.78,1.25,1.25,0,0,0-.76-.78,5.62,5.62,0,0,0-1.68-.24Zm8.07.65a2.5,2.5,0,0,0-1.95.55,3.76,3.76,0,0,0-.46,2.25V122a5.79,5.79,0,0,0,.2,1.73,1.18,1.18,0,0,0,.71.78,4.59,4.59,0,0,0,1.53.2c2.13,0,3.68-.5,4.64-1.48a5.78,5.78,0,0,0,1.45-4.22,5.27,5.27,0,0,0-1.35-3.87c-.9-.92-2.38-1.37-4.44-1.37h-3.36v-.55h2.8a5.13,5.13,0,0,0,3-.74,3.74,3.74,0,0,0,1.43-1.95,8.56,8.56,0,0,0,.39-2.62,5.37,5.37,0,0,0-1.06-3.63A4.42,4.42,0,0,0,365.3,103Z"/><path class="cls-4" d="M426.08,102.39c-.09.76-.15,1.5-.18,2.21s0,1.26,0,1.63,0,.76,0,1.12.05.66.07.9h-.75a16.42,16.42,0,0,0-.55-3,2.62,2.62,0,0,0-1.22-1.59,5.51,5.51,0,0,0-2.59-.47h-2.7a5.92,5.92,0,0,0-1.68.18,1.12,1.12,0,0,0-.77.74,6,6,0,0,0-.19,1.78V122a5.94,5.94,0,0,0,.19,1.76,1.14,1.14,0,0,0,.77.77,5.92,5.92,0,0,0,1.68.18h2.37a6.85,6.85,0,0,0,3.11-.56,3.2,3.2,0,0,0,1.53-1.8,14.41,14.41,0,0,0,.7-3.41h.75a21,21,0,0,0-.1,2.35c0,.41,0,1,.05,1.77s.09,1.57.18,2.4c-1.11,0-2.36-.07-3.74-.09h-8l-2.64,0c-.89,0-1.73,0-2.54,0v-.66a6.57,6.57,0,0,0,1.68-.26,1.18,1.18,0,0,0,.77-.78,5.94,5.94,0,0,0,.19-1.76V105.84a6,6,0,0,0-.19-1.78,1.24,1.24,0,0,0-.77-.78,5.56,5.56,0,0,0-1.68-.24v-.65l2.54,0,2.64,0,2.43,0h1.83l3.41,0C424,102.46,425.08,102.43,426.08,102.39Zm-5.6,11.13v.65h-6v-.65Zm.94-4.3c-.08,1.24-.12,2.19-.11,2.84s0,1.24,0,1.79,0,1.14,0,1.79.07,1.59.16,2.83h-.75c-.09-.7-.19-1.37-.31-2a3.09,3.09,0,0,0-.78-1.62,2.69,2.69,0,0,0-2-.64v-.65a2.67,2.67,0,0,0,1.64-.44,2.5,2.5,0,0,0,.83-1.12,6.88,6.88,0,0,0,.36-1.42c.06-.49.13-.93.19-1.32Z"/><path class="cls-4" d="M462.21,102.39l1.79.06c.74,0,1.47,0,2.18,0,1,0,2,0,2.93,0l2,0a11.11,11.11,0,0,1,4.38.75,5.78,5.78,0,0,1,2.6,2,5,5,0,0,1,.86,2.88,6.29,6.29,0,0,1-.39,2.09,5.63,5.63,0,0,1-1.35,2.08,7.18,7.18,0,0,1-2.62,1.61,11.71,11.71,0,0,1-4.2.64h-3.12v-.65h2.8a6.9,6.9,0,0,0,3.53-.74,3.7,3.7,0,0,0,1.66-2,8,8,0,0,0,.44-2.72,6,6,0,0,0-1.22-4c-.82-.94-2.21-1.41-4.18-1.41a2.55,2.55,0,0,0-2,.55,3.85,3.85,0,0,0-.45,2.25V122a5.94,5.94,0,0,0,.19,1.76,1.18,1.18,0,0,0,.77.78,6.47,6.47,0,0,0,1.67.26v.66c-.5,0-1.12-.07-1.87-.09H464c-.74,0-1.33,0-1.79.09v-.66a6.57,6.57,0,0,0,1.68-.26,1.16,1.16,0,0,0,.76-.78,5.88,5.88,0,0,0,.2-1.76V105.84a5.94,5.94,0,0,0-.2-1.78,1.23,1.23,0,0,0-.76-.78,5.56,5.56,0,0,0-1.68-.24Zm5.18,11.55q1.75.07,2.76.15c.68.06,1.23.1,1.65.15s.83.09,1.22.16a5.7,5.7,0,0,1,3.14,1.32,6.06,6.06,0,0,1,1.42,3l.81,3.32a8.78,8.78,0,0,0,.67,2.06,1.07,1.07,0,0,0,1.06.61,1.48,1.48,0,0,0,.92-.36,6,6,0,0,0,.8-.88l.49.36a6.13,6.13,0,0,1-1.42,1.54,3.82,3.82,0,0,1-4.18-.17,4.87,4.87,0,0,1-1.37-2.8l-.71-3.26a18.85,18.85,0,0,0-.67-2.43,3.91,3.91,0,0,0-1-1.61,2.91,2.91,0,0,0-2-.58h-3.52Z"/></svg>