<svg id="Capa_1" data-name="Capa 1" xmlns="http://www.w3.org/2000/svg" viewBox="0 0 537 171"><defs><style>.cls-1,.cls-3{fill:#fff;}.cls-2{fill:#d4a853;}.cls-3{stroke:#fff;stroke-miterlimit:10;stroke-width:6px;}.cls-4{fill:#c49a3c;}</style></defs><path class="cls-1" d="M157.61,43.47c1.2.05,2.78.1,4.75.15s3.92.07,5.87.07q3.59,0,6.91-.07c2.22,0,3.78-.08,4.67-.08q8.82,0,13.2,3.29a10.14,10.14,0,0,1,4.37,8.45A11.12,11.12,0,0,1,196,60.51a13.38,13.38,0,0,1-4.41,4.71,21.9,21.9,0,0,1-7.89,3.14v.15a27.76,27.76,0,0,1,10.43,2.65A13.4,13.4,0,0,1,199.62,76a11.42,11.42,0,0,1,1.65,5.87,13,13,0,0,1-2.36,7.81,14.55,14.55,0,0,1-6.8,5,29.22,29.22,0,0,1-10.58,1.72c-1.09,0-2.76,0-5-.11s-5-.11-8.15-.11c-2,0-4,0-6,0s-3.55.08-4.75.18V94.9a13.89,13.89,0,0,0,3.7-.6A2.6,2.6,0,0,0,163,92.5a14.88,14.88,0,0,0,.41-4V51.39a14.87,14.87,0,0,0-.41-4.07,2.7,2.7,0,0,0-1.65-1.8,11.72,11.72,0,0,0-3.7-.56ZM178.54,45c-2,0-3.37.43-4,1.27s-.93,2.57-.93,5.16V88.47a14.6,14.6,0,0,0,.41,4,2.57,2.57,0,0,0,1.57,1.79,9.57,9.57,0,0,0,3.33.45q6,0,8.82-3.4t2.76-9.68q0-5.76-2.95-8.89t-9.75-3.14H171V68.28h6.43a9.06,9.06,0,0,0,5.87-1.68,8.58,8.58,0,0,0,2.84-4.48,22.4,22.4,0,0,0,.79-6q0-5.54-1.95-8.34C183.68,45.9,181.53,45,178.54,45Z"/><path class="cls-1" d="M221,43.47c1.25.05,2.84.1,4.79.15s3.89.07,5.83.07q3.66,0,6.95-.07c2.19,0,3.74-.08,4.64-.08a32.65,32.65,0,0,1,11.1,1.61,13.86,13.86,0,0,1,6.54,4.52A11.24,11.24,0,0,1,263,56.55a14.21,14.21,0,0,1-1,5,12.2,12.2,0,0,1-3.36,4.75,18.11,18.11,0,0,1-6.54,3.55,34.11,34.11,0,0,1-10.58,1.38h-7.17V69.78h6.42q4.71,0,7.22-1.68a8.13,8.13,0,0,0,3.36-4.49,21.35,21.35,0,0,0,.86-6.24q0-5.91-2.32-9.16c-1.54-2.16-4.21-3.25-8-3.25-2.05,0-3.38.43-4,1.27S237,48.8,237,51.39V88.47a13.5,13.5,0,0,0,.45,4,2.71,2.71,0,0,0,1.68,1.8,13.65,13.65,0,0,0,3.63.6v1.49c-1.25-.1-2.84-.16-4.79-.18s-3.91,0-5.9,0c-2.24,0-4.34,0-6.28,0s-3.54.08-4.79.18V94.9a13.89,13.89,0,0,0,3.7-.6,2.6,2.6,0,0,0,1.65-1.8,14.88,14.88,0,0,0,.41-4V51.39a14.87,14.87,0,0,0-.41-4.07,2.7,2.7,0,0,0-1.65-1.8A11.72,11.72,0,0,0,221,45ZM234.39,70c2.34.1,4.29.22,5.86.34l4,.34c1.12.1,2.13.22,3,.37,4.13.4,7.19,1.36,9.15,2.88a11.27,11.27,0,0,1,3.93,6.91l1.72,7.7a15.53,15.53,0,0,0,1.46,4.38,2.35,2.35,0,0,0,2.28,1.23,2.94,2.94,0,0,0,1.79-.56,8.09,8.09,0,0,0,1.5-1.53l1,.89a12.47,12.47,0,0,1-4,3.4,11.4,11.4,0,0,1-5.31,1.09,10.48,10.48,0,0,1-6.05-1.68c-1.65-1.12-2.77-3.26-3.37-6.39l-1.42-7.48a45.48,45.48,0,0,0-1.38-5.53,9.21,9.21,0,0,0-2.13-3.74,5.37,5.37,0,0,0-4-1.35h-8.08Z"/><path class="cls-1" d="M310.26,43.24l18.16,46.87a9,9,0,0,0,2.43,3.7,4.61,4.61,0,0,0,2.43,1.09v1.49c-1.29-.1-2.85-.16-4.67-.18s-3.67,0-5.57,0q-3.29,0-6.13,0c-1.89,0-3.44.08-4.63.18V94.9q3.81-.15,4.86-1.31t-.45-5L303.53,53.11l1.35-1.65-12,31a27.71,27.71,0,0,0-1.72,6.13,6.62,6.62,0,0,0,.37,3.74,3.84,3.84,0,0,0,2.24,1.9,12.78,12.78,0,0,0,3.89.64v1.49c-1.59-.1-3.14-.16-4.63-.18s-3,0-4.49,0c-1.1,0-2.13,0-3.1,0a23.37,23.37,0,0,0-2.58.18V94.9a6.92,6.92,0,0,0,3.25-2,15.46,15.46,0,0,0,3.1-5.45l17.12-44.26c.6,0,1.25.08,1.95.08S309.66,43.29,310.26,43.24Zm6.5,31.62v1.5H294.49l.74-1.5Z"/><path class="cls-1" d="M389.42,43.47V45a7.41,7.41,0,0,0-3.14,2.28,27.05,27.05,0,0,0-3.58,5.65L368.27,81.52H365.5L348,49.22a11.07,11.07,0,0,0-2.47-3.4,3.25,3.25,0,0,0-1.86-.78V43.47l3.77.18c1.32.08,2.75.12,4.3.12q3,0,6.43-.08t6.43-.22V45a17.23,17.23,0,0,0-3.37.3,2.72,2.72,0,0,0-2,1.27c-.34.64-.22,1.59.38,2.84l12.11,23.17-1.8,2.09,8.53-16.89q2.46-4.93,2.57-7.7a4.21,4.21,0,0,0-1.56-3.93A8.75,8.75,0,0,0,374.7,45V43.47l4.67.15c1.47.05,2.93.07,4.37.07,1.2,0,2.26,0,3.18-.07ZM372.83,71V88.47a13.5,13.5,0,0,0,.45,4A2.71,2.71,0,0,0,375,94.3a13.65,13.65,0,0,0,3.63.6v1.49q-1.87-.15-4.86-.18t-6,0c-2.15,0-4.2,0-6.17,0s-3.55.08-4.75.18V94.9a13.89,13.89,0,0,0,3.7-.6,2.62,2.62,0,0,0,1.65-1.8,14.88,14.88,0,0,0,.41-4V73.14l5.68,4.64Z"/><path class="cls-1" d="M427.47,43.24l18.17,46.87a9,9,0,0,0,2.43,3.7,4.55,4.55,0,0,0,2.43,1.09v1.49c-1.3-.1-2.85-.16-4.67-.18s-3.68,0-5.57,0q-3.3,0-6.13,0c-1.9,0-3.44.08-4.64.18V94.9q3.81-.15,4.86-1.31t-.45-5L420.75,53.11l1.34-1.65-12,31a27.71,27.71,0,0,0-1.72,6.13,6.61,6.61,0,0,0,.38,3.74,3.78,3.78,0,0,0,2.24,1.9,12.72,12.72,0,0,0,3.89.64v1.49c-1.6-.1-3.14-.16-4.64-.18s-3,0-4.48,0c-1.1,0-2.13,0-3.11,0a23.37,23.37,0,0,0-2.58.18V94.9a7,7,0,0,0,3.26-2,15.61,15.61,0,0,0,3.1-5.45l17.12-44.26c.6,0,1.24.08,1.94.08S426.88,43.29,427.47,43.24ZM434,74.86v1.5H411.7l.75-1.5Z"/><path class="cls-1" d="M514.71,43.47V45a7.82,7.82,0,0,0-3.66,1.09,4.15,4.15,0,0,0-1.68,2.69,24.69,24.69,0,0,0-.41,5.19V96.62a13.25,13.25,0,0,0-1.46-.08c-.52,0-1.08,0-1.68.08L473.75,53V85.33a26.57,26.57,0,0,0,.45,5.57,4.1,4.1,0,0,0,2,2.84,12.36,12.36,0,0,0,4.67,1.16v1.49q-1.43-.15-3.66-.18c-1.5,0-2.92,0-4.26,0s-2.41,0-3.63,0a29,29,0,0,0-3,.18V94.9a8.75,8.75,0,0,0,3.7-1.12,4.18,4.18,0,0,0,1.65-2.7,25.42,25.42,0,0,0,.41-5.15V51.39a14.87,14.87,0,0,0-.41-4.07,2.73,2.73,0,0,0-1.65-1.8,11.72,11.72,0,0,0-3.7-.56V43.47q1.2.08,3,.15c1.22.05,2.43.07,3.63.07s2.26,0,3.36-.07l2.91-.15,28,37.3V54.53a26.54,26.54,0,0,0-.45-5.61,4.29,4.29,0,0,0-1.94-2.84A11,11,0,0,0,500.14,45V43.47c.94.05,2.18.1,3.7.15s2.92.07,4.22.07,2.48,0,3.7-.07S514,43.52,514.71,43.47Z"/><rect class="cls-2" x="17.38" y="21.2" width="129" height="129"/><path class="cls-3" d="M94.82,81.8a21.18,21.18,0,0,0-15,6.21V75.59a21.23,21.23,0,1,0,0-30V33.67l-6.23,2.84V69.35L46.41,42.17l0,10.15L73.59,79.46v6.25L46.41,112.89l0,10.15L73.59,95.82v33.54l6.23,2.84V118.06a21.23,21.23,0,1,0,15-36.26ZM95.11,45A15.57,15.57,0,1,1,79.53,60.57,15.57,15.57,0,0,1,95.11,45Zm0,74.74a15.57,15.57,0,1,1,15.57-15.57A15.58,15.58,0,0,1,95.11,119.74Z"/><path class="cls-4" d="M195.27,104.69l1.79.07,2.18,0c1,0,2,0,2.93,0l2,0a7.89,7.89,0,0,1,5.15,1.44,4.55,4.55,0,0,1,1.72,3.68,5.48,5.48,0,0,1-.47,2.23,5.3,5.3,0,0,1-1.56,2,8.39,8.39,0,0,1-2.92,1.45v.07a9.9,9.9,0,0,1,4,1.22,5.11,5.11,0,0,1,2,2.1,5.73,5.73,0,0,1,.59,2.53,5.86,5.86,0,0,1-.93,3.28,6.36,6.36,0,0,1-2.69,2.23,10,10,0,0,1-4.2.81c-.48,0-1.19,0-2.15,0s-2.1,0-3.45,0l-2.24,0c-.74,0-1.34,0-1.79.08v-.65a6.55,6.55,0,0,0,1.67-.26,1.18,1.18,0,0,0,.77-.78,6,6,0,0,0,.19-1.76V108.14a5.93,5.93,0,0,0-.19-1.77,1.22,1.22,0,0,0-.77-.78,5.82,5.82,0,0,0-1.67-.25Zm8.07.65a2.5,2.5,0,0,0-2,.56,3.72,3.72,0,0,0-.46,2.24v16.15a5.71,5.71,0,0,0,.2,1.72,1.18,1.18,0,0,0,.71.79,4.64,4.64,0,0,0,1.53.19q3.19,0,4.64-1.48a5.77,5.77,0,0,0,1.45-4.22,5.27,5.27,0,0,0-1.35-3.87c-.9-.91-2.38-1.37-4.44-1.37h-3.36v-.55h2.8a5.08,5.08,0,0,0,3-.73,3.69,3.69,0,0,0,1.44-2,8.51,8.51,0,0,0,.39-2.62,5.46,5.46,0,0,0-1.06-3.63A4.43,4.43,0,0,0,203.34,105.34Z"/><path class="cls-4" d="M257,104.53,265,125a3.48,3.48,0,0,0,1.11,1.64,2.37,2.37,0,0,0,1.14.44v.65c-.44,0-1-.07-1.6-.08l-1.88,0-2.38,0c-.74,0-1.33,0-1.79.08v-.65a3.15,3.15,0,0,0,2.12-.57c.3-.34.23-1.06-.2-2.17l-6.06-16.17.53-.43-5.67,14.72a8.75,8.75,0,0,0-.62,2.19,2.55,2.55,0,0,0,.18,1.42,1.59,1.59,0,0,0,.95.75,5.79,5.79,0,0,0,1.67.26v.65c-.6,0-1.24-.07-1.9-.08l-1.84,0-1.38,0c-.38,0-.74,0-1.06.08v-.65a3.18,3.18,0,0,0,1.33-.77,5.17,5.17,0,0,0,1.24-2.06l7.65-19.73H257Zm4,13.83V119h-9.7l.33-.66Z"/><path class="cls-4" d="M300.28,104.69l1.79.07,2.19,0c1,0,2,0,2.93,0l2,0a11.11,11.11,0,0,1,4.38.75,5.73,5.73,0,0,1,2.6,2,5,5,0,0,1,.87,2.88,6.28,6.28,0,0,1-.39,2.08,5.78,5.78,0,0,1-1.36,2.09,7.32,7.32,0,0,1-2.62,1.61,11.91,11.91,0,0,1-4.2.63h-3.12v-.65h2.8a6.91,6.91,0,0,0,3.53-.73,3.73,3.73,0,0,0,1.66-2,8.08,8.08,0,0,0,.44-2.72,5.93,5.93,0,0,0-1.22-4c-.81-.94-2.21-1.42-4.18-1.42a2.54,2.54,0,0,0-2,.56,3.81,3.81,0,0,0-.45,2.24v16.15a6,6,0,0,0,.19,1.76,1.18,1.18,0,0,0,.77.78,6.57,6.57,0,0,0,1.68.26v.65c-.51,0-1.13-.07-1.88-.08l-2.26,0-2.38,0c-.73,0-1.33,0-1.79.08v-.65a6.57,6.57,0,0,0,1.68-.26,1.2,1.2,0,0,0,.77-.78,6,6,0,0,0,.19-1.76V108.14a5.93,5.93,0,0,0-.19-1.77,1.24,1.24,0,0,0-.77-.78,5.84,5.84,0,0,0-1.68-.25Zm5.18,11.56c1.17,0,2.09.09,2.77.15l1.64.14,1.22.16a5.67,5.67,0,0,1,3.14,1.32,6.1,6.1,0,0,1,1.42,3l.81,3.32a8.73,8.73,0,0,0,.67,2.07,1.07,1.07,0,0,0,1.06.6,1.48,1.48,0,0,0,.93-.36,5.49,5.49,0,0,0,.79-.88l.49.36a6.17,6.17,0,0,1-1.41,1.55,3.44,3.44,0,0,1-2.07.54,3.34,3.34,0,0,1-2.12-.72,4.78,4.78,0,0,1-1.36-2.8l-.72-3.26a18.23,18.23,0,0,0-.67-2.42,3.91,3.91,0,0,0-1-1.61,2.92,2.92,0,0,0-2-.59h-3.52Z"/><path class="cls-4" d="M353.93,104.69l1.79.07,2.18,0c1,0,2,0,2.93,0l2,0a7.86,7.86,0,0,1,5.14,1.44,4.56,4.56,0,0,1,1.73,3.68,5.49,5.49,0,0,1-.48,2.23,5.3,5.3,0,0,1-1.56,2,8.33,8.33,0,0,1-2.91,1.45v.07a10,10,0,0,1,4,1.22,5.14,5.14,0,0,1,2,2.1,5.73,5.73,0,0,1,.59,2.53,5.86,5.86,0,0,1-.93,3.28,6.33,6.33,0,0,1-2.68,2.23,10,10,0,0,1-4.2.81c-.48,0-1.2,0-2.15,0s-2.11,0-3.45,0l-2.25,0c-.74,0-1.33,0-1.79.08v-.65a6.57,6.57,0,0,0,1.68-.26,1.16,1.16,0,0,0,.76-.78,5.92,5.92,0,0,0,.2-1.76V108.14a5.86,5.86,0,0,0-.2-1.77,1.21,1.21,0,0,0-.76-.78,5.84,5.84,0,0,0-1.68-.25Zm8.07.65a2.52,2.52,0,0,0-1.95.56,3.81,3.81,0,0,0-.45,2.24v16.15a5.77,5.77,0,0,0,.19,1.72,1.17,1.17,0,0,0,.72.79A4.56,4.56,0,0,0,362,127q3.18,0,4.64-1.48a5.8,5.8,0,0,0,1.44-4.22,5.27,5.27,0,0,0-1.35-3.87c-.9-.91-2.38-1.37-4.44-1.37H359v-.55h2.8a5.1,5.1,0,0,0,3-.73,3.72,3.72,0,0,0,1.43-2,8.51,8.51,0,0,0,.39-2.62,5.41,5.41,0,0,0-1.06-3.63A4.42,4.42,0,0,0,362,105.34Z"/><path class="cls-4" d="M422.78,104.69q-.13,1.14-.18,2.22c0,.71-.05,1.25-.05,1.62s0,.77,0,1.13,0,.65.06.89h-.75a15.51,15.51,0,0,0-.55-3,2.67,2.67,0,0,0-1.22-1.6,5.64,5.64,0,0,0-2.59-.47h-2.7a5.92,5.92,0,0,0-1.68.18,1.12,1.12,0,0,0-.76.75,5.86,5.86,0,0,0-.2,1.77v16.15a5.92,5.92,0,0,0,.2,1.76,1.12,1.12,0,0,0,.76.76,5.92,5.92,0,0,0,1.68.18h2.37a6.87,6.87,0,0,0,3.11-.55,3.19,3.19,0,0,0,1.53-1.81,13.83,13.83,0,0,0,.7-3.4h.75c-.06.59-.1,1.37-.1,2.34,0,.42,0,1,.05,1.78s.09,1.57.18,2.39c-1.1,0-2.35-.07-3.74-.08l-3.71,0h-1.84l-2.43,0-2.63,0-2.54,0v-.65a6.55,6.55,0,0,0,1.67-.26,1.18,1.18,0,0,0,.77-.78,6,6,0,0,0,.19-1.76V108.14a5.93,5.93,0,0,0-.19-1.77,1.22,1.22,0,0,0-.77-.78,5.82,5.82,0,0,0-1.67-.25v-.65l2.54,0,2.63,0,2.43,0H416l3.4,0C420.65,104.76,421.78,104.74,422.78,104.69Zm-5.6,11.14v.65h-6v-.65Zm.95-4.3c-.09,1.24-.13,2.18-.12,2.83s0,1.25,0,1.79,0,1.14,0,1.79.08,1.6.16,2.83h-.75c-.08-.69-.19-1.37-.3-2a3.06,3.06,0,0,0-.79-1.63,2.73,2.73,0,0,0-2-.63v-.65a2.65,2.65,0,0,0,1.64-.44,2.53,2.53,0,0,0,.83-1.13,5.62,5.62,0,0,0,.36-1.41c.07-.49.13-.93.2-1.32Z"/><path class="cls-4" d="M458.91,104.69l1.79.07,2.19,0c1,0,2,0,2.93,0l2,0a11.11,11.11,0,0,1,4.38.75,5.73,5.73,0,0,1,2.6,2,5,5,0,0,1,.87,2.88,6.28,6.28,0,0,1-.39,2.08,5.88,5.88,0,0,1-1.35,2.09,7.46,7.46,0,0,1-2.63,1.61,11.91,11.91,0,0,1-4.2.63H464v-.65h2.8a6.91,6.91,0,0,0,3.53-.73,3.73,3.73,0,0,0,1.66-2,8.08,8.08,0,0,0,.44-2.72,5.93,5.93,0,0,0-1.22-4c-.81-.94-2.21-1.42-4.18-1.42a2.54,2.54,0,0,0-2,.56,3.81,3.81,0,0,0-.45,2.24v16.15a6,6,0,0,0,.19,1.76,1.18,1.18,0,0,0,.77.78,6.57,6.57,0,0,0,1.68.26v.65c-.5,0-1.13-.07-1.88-.08l-2.26,0-2.38,0c-.73,0-1.33,0-1.79.08v-.65a6.57,6.57,0,0,0,1.68-.26,1.18,1.18,0,0,0,.77-.78,6,6,0,0,0,.19-1.76V108.14a5.93,5.93,0,0,0-.19-1.77,1.22,1.22,0,0,0-.77-.78,5.84,5.84,0,0,0-1.68-.25Zm5.18,11.56c1.17,0,2.09.09,2.77.15l1.64.14,1.22.16a5.67,5.67,0,0,1,3.14,1.32,6.1,6.1,0,0,1,1.42,3l.81,3.32a8.73,8.73,0,0,0,.67,2.07,1.07,1.07,0,0,0,1.06.6,1.48,1.48,0,0,0,.93-.36,5.49,5.49,0,0,0,.79-.88l.49.36a6.17,6.17,0,0,1-1.41,1.55,3.44,3.44,0,0,1-2.07.54,3.34,3.34,0,0,1-2.12-.72,4.84,4.84,0,0,1-1.36-2.8l-.72-3.26a18.23,18.23,0,0,0-.67-2.42,3.81,3.81,0,0,0-1-1.61,2.92,2.92,0,0,0-2-.59h-3.52Z"/></svg>