<svg id="Capa_1" data-name="Capa 1" xmlns="http://www.w3.org/2000/svg" viewBox="0 0 512 512"><defs><style>.cls-1,.cls-2{fill:#fff;}.cls-2{stroke:#fff;stroke-miterlimit:10;stroke-width:6px;}</style></defs><rect x="-0.66" y="-0.11" width="513" height="513"/><path class="cls-1" d="M41.49,298.16c1.44.06,3.33.12,5.69.18s4.7.09,7,.09q4.31,0,8.28-.09c2.66-.06,4.53-.09,5.6-.09q10.57,0,15.81,3.94a12.15,12.15,0,0,1,5.24,10.12,13.37,13.37,0,0,1-1.66,6.27,16.18,16.18,0,0,1-5.28,5.64A26.21,26.21,0,0,1,72.75,328v.18q7.88.72,12.49,3.18a16.07,16.07,0,0,1,6.58,5.82,13.64,13.64,0,0,1,2,7A15.55,15.55,0,0,1,91,353.55a17.53,17.53,0,0,1-8.15,6,35.16,35.16,0,0,1-12.67,2.06q-2,0-6-.14t-9.76-.13q-3.68,0-7.21,0c-2.36,0-4.25.11-5.69.23v-1.8a16.46,16.46,0,0,0,4.44-.71,3.13,3.13,0,0,0,2-2.15,18.13,18.13,0,0,0,.49-4.84V307.65a18,18,0,0,0-.49-4.88,3.26,3.26,0,0,0-2-2.15,14,14,0,0,0-4.44-.67ZM66.57,300q-3.67,0-4.79,1.52t-1.12,6.18v44.42a17.27,17.27,0,0,0,.49,4.75A3.13,3.13,0,0,0,63,359a11.47,11.47,0,0,0,4,.54c4.83,0,8.36-1.36,10.56-4.08s3.32-6.58,3.32-11.6c0-4.59-1.18-8.15-3.54-10.65s-6.25-3.77-11.69-3.77H57.52v-1.52h7.71q4.56,0,7-2a10.4,10.4,0,0,0,3.4-5.38,26.51,26.51,0,0,0,.94-7.21q0-6.62-2.33-10T66.57,300Z"/><path class="cls-1" d="M117.44,298.16q2.24.09,5.73.18t7,.09c2.92,0,5.7,0,8.32-.09s4.48-.09,5.56-.09a39.19,39.19,0,0,1,13.3,1.92,16.56,16.56,0,0,1,7.83,5.42,13.45,13.45,0,0,1,2.6,8.24,17.24,17.24,0,0,1-1.16,6.05,14.72,14.72,0,0,1-4,5.68,21.9,21.9,0,0,1-7.84,4.26,40.91,40.91,0,0,1-12.67,1.65h-8.6v-1.79h7.7q5.64,0,8.64-2a9.77,9.77,0,0,0,4-5.38,25.26,25.26,0,0,0,1-7.47q0-7.08-2.77-11t-9.59-3.9q-3.66,0-4.79,1.52c-.74,1-1.12,3.08-1.12,6.18v44.42a16.28,16.28,0,0,0,.54,4.84,3.24,3.24,0,0,0,2,2.15,16,16,0,0,0,4.34.71v1.8c-1.49-.12-3.4-.2-5.73-.23s-4.69,0-7.08,0q-4,0-7.52,0c-2.33,0-4.24.11-5.73.23v-1.8a16.3,16.3,0,0,0,4.43-.71,3.11,3.11,0,0,0,2-2.15,17.72,17.72,0,0,0,.49-4.84V307.65a17.61,17.61,0,0,0-.49-4.88,3.24,3.24,0,0,0-2-2.15,13.86,13.86,0,0,0-4.43-.67Zm16,31.79c2.81.12,5.15.26,7,.4l4.84.41c1.34.12,2.55.27,3.62.45q7.44.71,11,3.44a13.57,13.57,0,0,1,4.71,8.29l2.06,9.22a18.68,18.68,0,0,0,1.74,5.24,2.82,2.82,0,0,0,2.73,1.48,3.51,3.51,0,0,0,2.15-.67,9.26,9.26,0,0,0,1.79-1.84l1.26,1.08a15.23,15.23,0,0,1-4.75,4.07,13.71,13.71,0,0,1-6.36,1.3,12.53,12.53,0,0,1-7.25-2q-3-2-4-7.65l-1.7-9a53.78,53.78,0,0,0-1.66-6.63,11.15,11.15,0,0,0-2.55-4.47,6.43,6.43,0,0,0-4.75-1.62h-9.67Z"/><path class="cls-1" d="M224.37,297.89,246.13,354a11,11,0,0,0,2.91,4.44,5.5,5.5,0,0,0,2.91,1.29v1.8c-1.55-.12-3.41-.2-5.59-.23s-4.41,0-6.68,0q-3.93,0-7.34,0c-2.27,0-4.12.11-5.55.23v-1.8c3-.11,5-.64,5.82-1.56s.66-2.91-.54-6l-15.76-42.54,1.61-2-14.33,37.17a33.7,33.7,0,0,0-2.06,7.34,7.91,7.91,0,0,0,.45,4.48,4.55,4.55,0,0,0,2.69,2.28,15,15,0,0,0,4.65.76v1.8c-1.91-.12-3.76-.2-5.55-.23s-3.58,0-5.37,0c-1.31,0-2.55,0-3.72,0a29.26,29.26,0,0,0-3.09.23v-1.8a8.28,8.28,0,0,0,3.9-2.32,18.84,18.84,0,0,0,3.71-6.54l20.51-53c.72.06,1.5.09,2.33.09S223.65,298,224.37,297.89Zm7.79,37.88v1.79H205.47l.9-1.79Z"/><path class="cls-1" d="M319.21,298.16V300a8.81,8.81,0,0,0-3.76,2.73,32.93,32.93,0,0,0-4.3,6.76l-17.28,34.3h-3.32L269.6,305.05a13.4,13.4,0,0,0-3-4.07,3.86,3.86,0,0,0-2.24-.94v-1.88c1.44.06,2.94.13,4.53.22s3.29.14,5.15.14q3.57,0,7.7-.09t7.7-.27V300a20.53,20.53,0,0,0-4,.36,3.26,3.26,0,0,0-2.42,1.52c-.42.78-.27,1.91.45,3.4L298,333.09l-2.15,2.5,10.21-20.24q3-5.91,3.09-9.22t-1.88-4.7a10.39,10.39,0,0,0-5.69-1.48v-1.79l5.6.18c1.76.06,3.5.09,5.24.09,1.43,0,2.7,0,3.8-.09Zm-19.88,33v20.95a16.28,16.28,0,0,0,.54,4.84,3.25,3.25,0,0,0,2,2.15,16.12,16.12,0,0,0,4.35.71v1.8q-2.25-.18-5.82-.23t-7.17,0q-3.86,0-7.39,0c-2.36,0-4.25.11-5.68.23v-1.8a16.37,16.37,0,0,0,4.43-.71,3.13,3.13,0,0,0,2-2.15,17.72,17.72,0,0,0,.49-4.84V333.71l6.81,5.56Z"/><path class="cls-1" d="M364.8,297.89,386.56,354a11,11,0,0,0,2.91,4.44,5.5,5.5,0,0,0,2.91,1.29v1.8c-1.55-.12-3.42-.2-5.59-.23s-4.41,0-6.68,0q-3.93,0-7.34,0c-2.27,0-4.12.11-5.55.23v-1.8c3-.11,5-.64,5.82-1.56s.65-2.91-.54-6l-15.76-42.54,1.61-2L344,344.91a33.7,33.7,0,0,0-2.06,7.34,7.91,7.91,0,0,0,.45,4.48A4.55,4.55,0,0,0,345.1,359a15,15,0,0,0,4.65.76v1.8c-1.91-.12-3.76-.2-5.55-.23s-3.58,0-5.37,0c-1.32,0-2.56,0-3.72,0a29.26,29.26,0,0,0-3.09.23v-1.8a8.33,8.33,0,0,0,3.9-2.32,18.84,18.84,0,0,0,3.71-6.54l20.51-53c.72.06,1.49.09,2.33.09S364.08,298,364.8,297.89Zm7.79,37.88v1.79H345.9l.9-1.79Z"/><path class="cls-1" d="M469.31,298.16V300a9.35,9.35,0,0,0-4.38,1.3,5,5,0,0,0-2,3.22,30.11,30.11,0,0,0-.49,6.23v51.13a15.85,15.85,0,0,0-1.75-.09q-.94,0-2,.09l-38.42-52.21v38.69a31.81,31.81,0,0,0,.53,6.67,4.91,4.91,0,0,0,2.38,3.41,14.68,14.68,0,0,0,5.59,1.38v1.8c-1.13-.12-2.59-.2-4.38-.23s-3.5,0-5.11,0c-1.43,0-2.88,0-4.34,0a35.56,35.56,0,0,0-3.63.23v-1.8a10.18,10.18,0,0,0,4.43-1.34,4.87,4.87,0,0,0,2-3.22,30,30,0,0,0,.5-6.18V307.65a17.53,17.53,0,0,0-.5-4.88,3.21,3.21,0,0,0-2-2.15,13.86,13.86,0,0,0-4.43-.67v-1.79q1.43.09,3.63.18c1.46.06,2.91.09,4.34.09s2.72,0,4-.09l3.49-.18,33.59,44.69V311.41a31.6,31.6,0,0,0-.54-6.71,5.08,5.08,0,0,0-2.33-3.41,13.25,13.25,0,0,0-5.64-1.34v-1.79c1.13.06,2.61.12,4.43.18s3.51.09,5.06.09,3,0,4.44-.09S468.42,298.22,469.31,298.16Z"/><path class="cls-2" d="M287.72,168.06a45.21,45.21,0,0,0-32.05,13.26V154.79a45.36,45.36,0,1,0,0-64.18V65.25l-13.31,6v70.16L184.3,83.39l.09,21.69,58,58V176.4L184.3,234.46l-.08,21.69L242.36,198v71.65l13.31,6v-30.2a45.36,45.36,0,1,0,32.05-77.45Zm.6-78.62a33.26,33.26,0,1,1-33.26,33.26A33.26,33.26,0,0,1,288.32,89.44Zm0,159.66a33.27,33.27,0,1,1,33.27-33.26A33.26,33.26,0,0,1,288.32,249.1Z"/><path class="cls-1" d="M123.93,380.89c.76,0,1.74.07,3,.11s2.42.05,3.6.05c1.68,0,3.29,0,4.83-.05s2.64-.06,3.28-.06q5.64,0,8.49,2.37a7.52,7.52,0,0,1,2.85,6.07,9.18,9.18,0,0,1-.78,3.68,8.85,8.85,0,0,1-2.58,3.28,14,14,0,0,1-4.81,2.39v.11a16.88,16.88,0,0,1,6.64,2,8.67,8.67,0,0,1,3.36,3.47,9.5,9.5,0,0,1,1,4.19,9.65,9.65,0,0,1-1.54,5.4,10.27,10.27,0,0,1-4.43,3.68,16.29,16.29,0,0,1-6.93,1.34c-.79,0-2,0-3.55-.08s-3.47-.08-5.69-.08c-1.26,0-2.49,0-3.71,0s-2.2.06-3,.13v-1.07a11.23,11.23,0,0,0,2.77-.43,1.94,1.94,0,0,0,1.26-1.29,9.58,9.58,0,0,0,.33-2.9V386.59a9.49,9.49,0,0,0-.33-2.93,2,2,0,0,0-1.26-1.29,9,9,0,0,0-2.77-.41ZM137.26,382c-1.65,0-2.72.31-3.23.92s-.75,1.84-.75,3.71v26.65a9.39,9.39,0,0,0,.33,2.85,1.93,1.93,0,0,0,1.18,1.29,7.66,7.66,0,0,0,2.52.32c3.51,0,6.07-.82,7.66-2.45s2.39-3.95,2.39-7a8.69,8.69,0,0,0-2.23-6.39c-1.49-1.5-3.93-2.26-7.33-2.26h-5.54v-.91h4.62a8.37,8.37,0,0,0,4.89-1.21,6.13,6.13,0,0,0,2.37-3.22,14.17,14.17,0,0,0,.64-4.33q0-4-1.74-6C141.87,382.64,140,382,137.26,382Z"/><path class="cls-1" d="M182.88,380.62,196,414.42a5.63,5.63,0,0,0,1.83,2.71,4,4,0,0,0,1.88.73v1.07c-.72-.07-1.6-.11-2.63-.13s-2.08,0-3.12,0c-1.4,0-2.71,0-3.92,0s-2.21.06-3,.13v-1.07c1.83-.07,3-.39,3.49-.94s.4-1.75-.32-3.57l-10-26.71.86-.7-9.35,24.29a13.71,13.71,0,0,0-1,3.63,4.05,4.05,0,0,0,.29,2.33,2.64,2.64,0,0,0,1.56,1.24,9.82,9.82,0,0,0,2.77.43v1.07c-1-.07-2.05-.11-3.15-.13l-3,0c-.9,0-1.66,0-2.29,0s-1.21.06-1.74.13v-1.07a5.44,5.44,0,0,0,2.2-1.26,8.66,8.66,0,0,0,2-3.42L182,380.62h.86Zm6.56,22.84v1.07h-16l.54-1.07Z"/><path class="cls-1" d="M211.31,380.89c.75,0,1.73.07,2.95.11s2.42.05,3.6.05c1.69,0,3.3,0,4.84-.05s2.63-.06,3.28-.06a18.38,18.38,0,0,1,7.22,1.24,9.45,9.45,0,0,1,4.3,3.36,8.33,8.33,0,0,1,1.43,4.75,10.36,10.36,0,0,1-.65,3.44,9.28,9.28,0,0,1-2.23,3.44,12,12,0,0,1-4.32,2.66,19.61,19.61,0,0,1-6.94,1.05h-5.16V399.8h4.63a11.55,11.55,0,0,0,5.83-1.2,6.22,6.22,0,0,0,2.74-3.23,13.26,13.26,0,0,0,.72-4.49,9.79,9.79,0,0,0-2-6.58q-2-2.34-6.91-2.34c-1.65,0-2.72.31-3.22.92s-.75,1.84-.75,3.71v26.65a9.64,9.64,0,0,0,.32,2.9,1.94,1.94,0,0,0,1.26,1.29,11.23,11.23,0,0,0,2.77.43v1.07c-.83-.07-1.85-.11-3.09-.13s-2.48,0-3.74,0-2.7,0-3.92,0-2.2.06-2.95.13v-1.07a11.14,11.14,0,0,0,2.76-.43,2,2,0,0,0,1.27-1.29,10,10,0,0,0,.32-2.9V386.59a9.88,9.88,0,0,0-.32-2.93,2,2,0,0,0-1.27-1.29,9,9,0,0,0-2.76-.41ZM219.85,400c1.93.07,3.46.15,4.57.24l2.71.24c.7.07,1.37.16,2,.27a9.39,9.39,0,0,1,5.18,2.17,9.93,9.93,0,0,1,2.34,4.92l1.34,5.48a14.72,14.72,0,0,0,1.1,3.41,1.77,1.77,0,0,0,1.75,1,2.49,2.49,0,0,0,1.53-.59,10.29,10.29,0,0,0,1.32-1.45l.8.59a10.27,10.27,0,0,1-2.33,2.55,5.71,5.71,0,0,1-3.41.89,5.49,5.49,0,0,1-3.5-1.19q-1.5-1.17-2.25-4.62l-1.19-5.37a28.85,28.85,0,0,0-1.1-4,6.24,6.24,0,0,0-1.72-2.66,4.76,4.76,0,0,0-3.25-1H220Z"/><path class="cls-1" d="M256.87,380.89c.76,0,1.74.07,3,.11s2.42.05,3.6.05c1.68,0,3.29,0,4.84-.05s2.63-.06,3.27-.06q5.64,0,8.49,2.37a7.52,7.52,0,0,1,2.85,6.07,9.18,9.18,0,0,1-.78,3.68,8.85,8.85,0,0,1-2.58,3.28,14,14,0,0,1-4.81,2.39v.11a16.82,16.82,0,0,1,6.64,2,8.67,8.67,0,0,1,3.36,3.47,9.5,9.5,0,0,1,1,4.19,9.65,9.65,0,0,1-1.54,5.4,10.27,10.27,0,0,1-4.43,3.68,16.29,16.29,0,0,1-6.93,1.34c-.79,0-2,0-3.55-.08s-3.47-.08-5.69-.08c-1.26,0-2.49,0-3.71,0s-2.2.06-3,.13v-1.07a11.23,11.23,0,0,0,2.77-.43,1.94,1.94,0,0,0,1.26-1.29,9.58,9.58,0,0,0,.33-2.9V386.59a9.49,9.49,0,0,0-.33-2.93,2,2,0,0,0-1.26-1.29,9,9,0,0,0-2.77-.41ZM270.2,382c-1.65,0-2.72.31-3.22.92s-.76,1.84-.76,3.71v26.65a9.39,9.39,0,0,0,.33,2.85,1.93,1.93,0,0,0,1.18,1.29,7.66,7.66,0,0,0,2.52.32c3.51,0,6.07-.82,7.66-2.45s2.39-3.95,2.39-7a8.69,8.69,0,0,0-2.23-6.39c-1.49-1.5-3.93-2.26-7.33-2.26H265.2v-.91h4.62a8.37,8.37,0,0,0,4.89-1.21,6.13,6.13,0,0,0,2.37-3.22,14.17,14.17,0,0,0,.64-4.33q0-4-1.74-6C274.81,382.64,272.89,382,270.2,382Z"/><path class="cls-1" d="M327.53,380.89c-.14,1.25-.24,2.47-.29,3.65s-.08,2.08-.08,2.69,0,1.26,0,1.85.07,1.09.11,1.48h-1.24a25.64,25.64,0,0,0-.91-5,4.37,4.37,0,0,0-2-2.64,9.29,9.29,0,0,0-4.27-.77h-4.46a9.63,9.63,0,0,0-2.76.29,1.88,1.88,0,0,0-1.27,1.24,9.88,9.88,0,0,0-.32,2.93v26.65a10,10,0,0,0,.32,2.9,1.87,1.87,0,0,0,1.27,1.26,9.56,9.56,0,0,0,2.76.3h3.92a11.4,11.4,0,0,0,5.14-.92,5.3,5.3,0,0,0,2.52-3,23.39,23.39,0,0,0,1.16-5.61h1.23a38.71,38.71,0,0,0-.16,3.87c0,.68,0,1.65.08,2.92s.15,2.59.3,3.95q-2.75-.1-6.18-.13l-6.13,0h-3l-4,0-4.35.05-4.19.08v-1.07a11.23,11.23,0,0,0,2.77-.43,2,2,0,0,0,1.26-1.29,9.64,9.64,0,0,0,.32-2.9V386.59a9.55,9.55,0,0,0-.32-2.93,2,2,0,0,0-1.26-1.29,9,9,0,0,0-2.77-.41v-1.07c1.32,0,2.72.06,4.19.08l4.35,0,4,0h3l5.62,0C324,381,325.89,381,327.53,380.89Zm-9.24,18.38v1.07h-9.83v-1.07Zm1.56-7.1c-.14,2.05-.21,3.6-.19,4.68s0,2.06,0,2.95,0,1.88.05,3,.13,2.63.27,4.67h-1.24c-.14-1.14-.31-2.26-.51-3.35a5,5,0,0,0-1.29-2.69,4.47,4.47,0,0,0-3.35-1.05v-1.07a4.33,4.33,0,0,0,2.71-.73,4.15,4.15,0,0,0,1.37-1.85,10.43,10.43,0,0,0,.59-2.34c.11-.81.22-1.53.32-2.18Z"/><path class="cls-1" d="M344.19,380.89c.75,0,1.74.07,3,.11s2.41.05,3.6.05c1.68,0,3.29,0,4.83-.05s2.64-.06,3.28-.06a18.47,18.47,0,0,1,7.23,1.24,9.5,9.5,0,0,1,4.3,3.36,8.32,8.32,0,0,1,1.42,4.75,10.33,10.33,0,0,1-.64,3.44,9.41,9.41,0,0,1-2.23,3.44,11.93,11.93,0,0,1-4.33,2.66,19.59,19.59,0,0,1-6.93,1.05h-5.16V399.8h4.62a11.53,11.53,0,0,0,5.83-1.2,6.13,6.13,0,0,0,2.74-3.23,13,13,0,0,0,.73-4.49,9.74,9.74,0,0,0-2-6.58q-2-2.34-6.9-2.34c-1.65,0-2.72.31-3.23.92s-.75,1.84-.75,3.71v26.65a10,10,0,0,0,.32,2.9,2,2,0,0,0,1.27,1.29,11.14,11.14,0,0,0,2.76.43v1.07c-.82-.07-1.85-.11-3.09-.13s-2.48,0-3.73,0-2.71,0-3.92,0-2.21.06-3,.13v-1.07a11.23,11.23,0,0,0,2.77-.43,1.94,1.94,0,0,0,1.26-1.29,9.64,9.64,0,0,0,.32-2.9V386.59a9.55,9.55,0,0,0-.32-2.93,2,2,0,0,0-1.26-1.29,9,9,0,0,0-2.77-.41ZM352.74,400q2.89.11,4.56.24l2.72.24q1.05.1,2,.27a9.43,9.43,0,0,1,5.19,2.17,10,10,0,0,1,2.33,4.92l1.35,5.48a14.25,14.25,0,0,0,1.1,3.41,1.77,1.77,0,0,0,1.75,1,2.51,2.51,0,0,0,1.53-.59,9.71,9.71,0,0,0,1.31-1.45l.81.59a10.11,10.11,0,0,1-2.34,2.55,5.67,5.67,0,0,1-3.41.89,5.46,5.46,0,0,1-3.49-1.19q-1.52-1.17-2.26-4.62l-1.18-5.37a28.85,28.85,0,0,0-1.1-4,6.43,6.43,0,0,0-1.72-2.66,4.78,4.78,0,0,0-3.25-1h-5.81Z"/></svg>