<svg id="Capa_1" data-name="Capa 1" xmlns="http://www.w3.org/2000/svg" viewBox="0 0 512 512"><defs><style>.cls-1{fill:#111;}.cls-2,.cls-3{fill:#c49a3c;}.cls-2{stroke:#c49a3c;stroke-miterlimit:10;stroke-width:6px;}</style></defs><path class="cls-1" d="M39.52,297.8c1.43.06,3.32.12,5.68.18s4.71.09,7,.09q4.31,0,8.29-.09c2.65-.06,4.52-.09,5.6-.09q10.56,0,15.8,3.94A12.12,12.12,0,0,1,87.16,312a13.36,13.36,0,0,1-1.65,6.27,16.22,16.22,0,0,1-5.29,5.64,26.21,26.21,0,0,1-9.45,3.77v.18q7.89.7,12.5,3.17a16.28,16.28,0,0,1,6.58,5.83,13.7,13.7,0,0,1,2,7A15.54,15.54,0,0,1,89,353.2a17.56,17.56,0,0,1-8.15,5.95,35.19,35.19,0,0,1-12.67,2.06q-2,0-6-.13t-9.77-.14q-3.67,0-7.21.05c-2.36,0-4.25.1-5.68.22v-1.79A16.63,16.63,0,0,0,44,358.7a3.09,3.09,0,0,0,2-2.15,17.59,17.59,0,0,0,.49-4.83V307.3a17.56,17.56,0,0,0-.49-4.88,3.21,3.21,0,0,0-2-2.15,13.58,13.58,0,0,0-4.43-.67Zm25.07,1.8c-2.45,0-4,.5-4.79,1.52s-1.12,3.07-1.12,6.18v44.42a17.07,17.07,0,0,0,.5,4.74,3.07,3.07,0,0,0,1.88,2.15,11.41,11.41,0,0,0,4,.54q7.26,0,10.57-4.07t3.31-11.6q0-6.9-3.53-10.66T63.7,329.06H55.55v-1.52h7.7q4.57,0,7-2a10.27,10.27,0,0,0,3.4-5.37,26.51,26.51,0,0,0,.94-7.21q0-6.63-2.32-10C70.74,300.71,68.18,299.6,64.59,299.6Z"/><path class="cls-1" d="M115.46,297.8c1.49.06,3.41.12,5.73.18s4.66.09,7,.09q4.38,0,8.33-.09t5.55-.09a39.09,39.09,0,0,1,13.3,1.93,16.52,16.52,0,0,1,7.84,5.42,13.42,13.42,0,0,1,2.59,8.24,17,17,0,0,1-1.16,6,14.75,14.75,0,0,1-4,5.69,21.72,21.72,0,0,1-7.84,4.25,40.53,40.53,0,0,1-12.67,1.66h-8.6v-1.79h7.71q5.64,0,8.64-2a9.76,9.76,0,0,0,4-5.37,25.67,25.67,0,0,0,1-7.48q0-7.06-2.78-11t-9.58-3.89c-2.45,0-4,.5-4.79,1.52s-1.12,3.07-1.12,6.18v44.42a16.15,16.15,0,0,0,.54,4.83,3.21,3.21,0,0,0,2,2.15,16.37,16.37,0,0,0,4.34.72v1.79c-1.49-.12-3.4-.19-5.73-.22s-4.69-.05-7.07-.05q-4,0-7.53.05c-2.32,0-4.24.1-5.73.22v-1.79a16.79,16.79,0,0,0,4.44-.72,3.11,3.11,0,0,0,2-2.15,18,18,0,0,0,.49-4.83V307.3a18,18,0,0,0-.49-4.88,3.24,3.24,0,0,0-2-2.15,13.7,13.7,0,0,0-4.44-.67Zm16,31.8q4.22.18,7,.4l4.84.4q2,.18,3.63.45,7.42.72,11,3.45t4.7,8.28l2.06,9.23a18.74,18.74,0,0,0,1.75,5.24,2.81,2.81,0,0,0,2.73,1.47,3.48,3.48,0,0,0,2.15-.67,10.08,10.08,0,0,0,1.79-1.83l1.25,1.07a15.26,15.26,0,0,1-4.74,4.08,13.9,13.9,0,0,1-6.36,1.29,12.61,12.61,0,0,1-7.26-2c-2-1.34-3.31-3.9-4-7.66l-1.7-9a53.33,53.33,0,0,0-1.66-6.63,11,11,0,0,0-2.55-4.48,6.43,6.43,0,0,0-4.74-1.61h-9.68Z"/><path class="cls-1" d="M222.4,297.53l21.76,56.16a10.64,10.64,0,0,0,2.91,4.43,5.46,5.46,0,0,0,2.91,1.3v1.79c-1.55-.12-3.42-.19-5.6-.22s-4.4-.05-6.67-.05q-3.94,0-7.34.05c-2.27,0-4.12.1-5.56.22v-1.79q4.58-.18,5.82-1.57c.84-.92.66-2.91-.53-6l-15.77-42.54,1.62-2-14.33,37.16a33.34,33.34,0,0,0-2.06,7.35,7.86,7.86,0,0,0,.45,4.47,4.55,4.55,0,0,0,2.68,2.29,15.47,15.47,0,0,0,4.66.76v1.79c-1.91-.12-3.76-.19-5.55-.22s-3.59-.05-5.38-.05c-1.31,0-2.55,0-3.71.05a29.06,29.06,0,0,0-3.09.22v-1.79a8.36,8.36,0,0,0,3.89-2.33c1.29-1.25,2.52-3.43,3.72-6.54l20.51-53c.71.07,1.49.09,2.33.09S221.68,297.6,222.4,297.53Zm7.79,37.89v1.79H203.5l.89-1.79Z"/><path class="cls-1" d="M317.24,297.8v1.8a8.59,8.59,0,0,0-3.76,2.73,32,32,0,0,0-4.3,6.76l-17.29,34.3h-3.31l-21-38.69a13.36,13.36,0,0,0-2.95-4.08,4,4,0,0,0-2.24-.94V297.8c1.43.06,2.94.14,4.52.23s3.3.13,5.15.13q3.58,0,7.7-.09t7.7-.27v1.88a20.6,20.6,0,0,0-4,.36,3.25,3.25,0,0,0-2.41,1.53c-.42.77-.27,1.91.44,3.4L296,332.73l-2.15,2.51L304.07,315q3-5.91,3.09-9.23c.09-2.2-.53-3.77-1.88-4.7a10.37,10.37,0,0,0-5.69-1.47v-1.8l5.6.18c1.76.06,3.51.09,5.24.09q2.15,0,3.81-.09Zm-19.88,33v21a16.56,16.56,0,0,0,.53,4.83,3.22,3.22,0,0,0,2,2.15,16.29,16.29,0,0,0,4.34.72v1.79Q302,361,298.43,361t-7.16-.05q-3.86,0-7.39.05c-2.36,0-4.26.1-5.69.22v-1.79a16.63,16.63,0,0,0,4.43-.72,3.09,3.09,0,0,0,2-2.15,17.51,17.51,0,0,0,.5-4.83V333.36l6.8,5.55Z"/><path class="cls-1" d="M362.82,297.53l21.77,56.16a10.64,10.64,0,0,0,2.91,4.43,5.46,5.46,0,0,0,2.91,1.3v1.79c-1.56-.12-3.42-.19-5.6-.22s-4.4-.05-6.67-.05q-3.94,0-7.35.05c-2.27,0-4.12.1-5.55.22v-1.79q4.58-.18,5.82-1.57c.84-.92.66-2.91-.53-6l-15.77-42.54,1.62-2-14.33,37.16A32.8,32.8,0,0,0,340,351.9a8,8,0,0,0,.44,4.47,4.6,4.6,0,0,0,2.69,2.29,15.42,15.42,0,0,0,4.66.76v1.79c-1.91-.12-3.76-.19-5.56-.22s-3.58-.05-5.37-.05c-1.31,0-2.55,0-3.72.05a29.46,29.46,0,0,0-3.09.22v-1.79a8.34,8.34,0,0,0,3.9-2.33,18.8,18.8,0,0,0,3.72-6.54l20.51-53c.71.07,1.49.09,2.32.09S362.11,297.6,362.82,297.53Zm7.8,37.89v1.79H343.93l.89-1.79Z"/><path class="cls-1" d="M467.34,297.8v1.8a9.4,9.4,0,0,0-4.39,1.29,5,5,0,0,0-2,3.23,30.72,30.72,0,0,0-.49,6.22v51.14a15.66,15.66,0,0,0-1.74-.09c-.63,0-1.3,0-2,.09l-38.42-52.21V348a31.76,31.76,0,0,0,.54,6.67,4.91,4.91,0,0,0,2.37,3.4,14.66,14.66,0,0,0,5.6,1.39v1.79c-1.14-.12-2.6-.19-4.39-.22s-3.49-.05-5.11-.05c-1.43,0-2.88,0-4.34.05a36.35,36.35,0,0,0-3.63.22v-1.79a10.51,10.51,0,0,0,4.44-1.34,5,5,0,0,0,2-3.23,30.1,30.1,0,0,0,.49-6.18V307.3a17.56,17.56,0,0,0-.49-4.88,3.24,3.24,0,0,0-2-2.15,13.65,13.65,0,0,0-4.44-.67v-1.8q1.44.09,3.63.18c1.46.06,2.91.09,4.34.09s2.72,0,4-.09l3.49-.18,33.58,44.69V311.06a32.46,32.46,0,0,0-.53-6.72,5.09,5.09,0,0,0-2.33-3.4,13,13,0,0,0-5.64-1.34v-1.8c1.13.06,2.61.12,4.43.18s3.51.09,5.06.09,3,0,4.43-.09S466.44,297.86,467.34,297.8Z"/><path class="cls-2" d="M285.74,167.7A45.21,45.21,0,0,0,253.69,181V154.44a45.36,45.36,0,1,0,0-64.19V64.89l-13.3,6v70.15L182.33,83l.08,21.69,58,58v13.35l-58.06,58-.08,21.69,58.14-58.14v71.66l13.3,6v-30.2a45.36,45.36,0,1,0,32.05-77.45Zm.61-78.62a33.27,33.27,0,1,1-33.26,33.26A33.26,33.26,0,0,1,286.35,89.08Zm0,159.66a33.26,33.26,0,1,1,33.26-33.26A33.26,33.26,0,0,1,286.35,248.74Z"/><path class="cls-3" d="M122,380.53c.75,0,1.73.08,3,.11s2.42.06,3.6.06c1.69,0,3.3,0,4.84-.06l3.28-.05q5.64,0,8.49,2.36A7.54,7.54,0,0,1,148,389a9.19,9.19,0,0,1-.78,3.69,8.74,8.74,0,0,1-2.58,3.27,13.69,13.69,0,0,1-4.81,2.39v.11a16.6,16.6,0,0,1,6.63,2,8.52,8.52,0,0,1,3.36,3.46,9.43,9.43,0,0,1,1,4.19,9.6,9.6,0,0,1-1.53,5.4,10.36,10.36,0,0,1-4.43,3.69,16.52,16.52,0,0,1-6.94,1.34c-.79,0-2,0-3.54-.08s-3.48-.08-5.7-.08l-3.71,0c-1.22,0-2.2.07-3,.14V417.5a10.77,10.77,0,0,0,2.77-.43,1.94,1.94,0,0,0,1.26-1.29,9.93,9.93,0,0,0,.32-2.9V386.23a10,10,0,0,0-.32-2.93,2.07,2.07,0,0,0-1.26-1.29,9.43,9.43,0,0,0-2.77-.4Zm13.32,1.08c-1.64,0-2.72.3-3.22.91s-.75,1.85-.75,3.71v26.65a9.68,9.68,0,0,0,.32,2.85,1.94,1.94,0,0,0,1.18,1.29,7.47,7.47,0,0,0,2.53.32q5.26,0,7.65-2.44t2.4-7a8.76,8.76,0,0,0-2.23-6.4q-2.24-2.25-7.34-2.25h-5.53v-.92h4.62a8.49,8.49,0,0,0,4.89-1.2,6.19,6.19,0,0,0,2.36-3.23,14.06,14.06,0,0,0,.65-4.32c0-2.65-.59-4.65-1.75-6S138,381.61,135.28,381.61Z"/><path class="cls-3" d="M180.9,380.27,194,414.07a5.61,5.61,0,0,0,1.82,2.71,3.86,3.86,0,0,0,1.88.72v1.08c-.71-.07-1.59-.12-2.63-.14l-3.12,0-3.92,0c-1.22,0-2.2.07-3,.14V417.5c1.82-.07,3-.38,3.49-.94s.39-1.74-.32-3.57l-10-26.71.86-.69-9.35,24.28a14.76,14.76,0,0,0-1,3.63,4,4,0,0,0,.3,2.34,2.61,2.61,0,0,0,1.55,1.23,9.2,9.2,0,0,0,2.77.43v1.08c-1-.07-2-.12-3.14-.14l-3,0-2.28,0c-.63,0-1.21.07-1.75.14V417.5a5.36,5.36,0,0,0,2.21-1.26,8.61,8.61,0,0,0,2-3.41L180,380.27h.86Zm6.56,22.83v1.08h-16l.53-1.08Z"/><path class="cls-3" d="M209.33,380.53c.75,0,1.74.08,3,.11s2.41.06,3.6.06q2.52,0,4.83-.06l3.28-.05a18.48,18.48,0,0,1,7.23,1.23,9.64,9.64,0,0,1,4.3,3.36,8.35,8.35,0,0,1,1.42,4.76,10.37,10.37,0,0,1-.64,3.44,9.49,9.49,0,0,1-2.23,3.44,12.06,12.06,0,0,1-4.33,2.66,19.84,19.84,0,0,1-6.93,1h-5.16v-1.07h4.62a11.41,11.41,0,0,0,5.83-1.21,6.15,6.15,0,0,0,2.74-3.22,13.05,13.05,0,0,0,.73-4.49,9.72,9.72,0,0,0-2-6.58q-2-2.34-6.9-2.34c-1.65,0-2.73.3-3.23.91s-.75,1.85-.75,3.71v26.65a9.93,9.93,0,0,0,.32,2.9,1.93,1.93,0,0,0,1.27,1.29,10.68,10.68,0,0,0,2.76.43v1.08c-.82-.07-1.85-.12-3.09-.14l-3.73,0-3.92,0c-1.22,0-2.21.07-3,.14V417.5a10.77,10.77,0,0,0,2.77-.43,1.92,1.92,0,0,0,1.26-1.29,9.59,9.59,0,0,0,.32-2.9V386.23a9.64,9.64,0,0,0-.32-2.93A2,2,0,0,0,212.1,382a9.43,9.43,0,0,0-2.77-.4Zm8.54,19.08c1.94.07,3.46.15,4.57.24l2.72.24c.69.08,1.37.17,2,.27a9.43,9.43,0,0,1,5.19,2.18,10,10,0,0,1,2.33,4.92l1.35,5.48a14.11,14.11,0,0,0,1.1,3.41,1.74,1.74,0,0,0,1.75,1,2.47,2.47,0,0,0,1.53-.59,9.71,9.71,0,0,0,1.31-1.45l.81.59a10.11,10.11,0,0,1-2.34,2.55,5.6,5.6,0,0,1-3.41.89,5.46,5.46,0,0,1-3.49-1.18q-1.52-1.18-2.26-4.62l-1.18-5.38a29.25,29.25,0,0,0-1.1-4,6.5,6.5,0,0,0-1.72-2.66,4.83,4.83,0,0,0-3.25-1H218Z"/><path class="cls-3" d="M254.9,380.53c.75,0,1.73.08,3,.11s2.42.06,3.6.06c1.69,0,3.3,0,4.84-.06l3.28-.05q5.64,0,8.49,2.36a7.54,7.54,0,0,1,2.85,6.07,9.19,9.19,0,0,1-.78,3.69,8.74,8.74,0,0,1-2.58,3.27,13.69,13.69,0,0,1-4.81,2.39v.11a16.6,16.6,0,0,1,6.63,2,8.52,8.52,0,0,1,3.36,3.46,9.43,9.43,0,0,1,1,4.19,9.6,9.6,0,0,1-1.53,5.4,10.36,10.36,0,0,1-4.43,3.69,16.52,16.52,0,0,1-6.94,1.34c-.79,0-2,0-3.54-.08s-3.48-.08-5.7-.08l-3.71,0c-1.22,0-2.2.07-3,.14V417.5a10.77,10.77,0,0,0,2.77-.43,1.94,1.94,0,0,0,1.26-1.29,9.93,9.93,0,0,0,.32-2.9V386.23a10,10,0,0,0-.32-2.93,2.07,2.07,0,0,0-1.26-1.29,9.43,9.43,0,0,0-2.77-.4Zm13.32,1.08c-1.64,0-2.72.3-3.22.91s-.75,1.85-.75,3.71v26.65a9.68,9.68,0,0,0,.32,2.85,1.94,1.94,0,0,0,1.18,1.29,7.47,7.47,0,0,0,2.53.32q5.27,0,7.66-2.44t2.39-7a8.76,8.76,0,0,0-2.23-6.4q-2.24-2.25-7.34-2.25h-5.53v-.92h4.62a8.49,8.49,0,0,0,4.89-1.2,6.19,6.19,0,0,0,2.36-3.23,14.06,14.06,0,0,0,.65-4.32c0-2.65-.59-4.65-1.75-6S270.91,381.61,268.22,381.61Z"/><path class="cls-3" d="M325.56,380.53q-.21,1.89-.3,3.66c-.05,1.18-.08,2.08-.08,2.68s0,1.27.06,1.86.07,1.08.1,1.48h-1.23a25.66,25.66,0,0,0-.92-5,4.32,4.32,0,0,0-2-2.63,9.14,9.14,0,0,0-4.27-.78h-4.46a9.69,9.69,0,0,0-2.77.3,1.83,1.83,0,0,0-1.26,1.23,9.58,9.58,0,0,0-.33,2.93v26.65a9.53,9.53,0,0,0,.33,2.9,1.85,1.85,0,0,0,1.26,1.27,10.13,10.13,0,0,0,2.77.29h3.92a11.34,11.34,0,0,0,5.13-.91,5.31,5.31,0,0,0,2.53-3,23.44,23.44,0,0,0,1.15-5.62h1.24a36.15,36.15,0,0,0-.16,3.87c0,.68,0,1.66.08,2.93s.15,2.59.29,3.95q-2.73-.1-6.18-.14l-6.12,0h-3l-4,0-4.35.06c-1.47,0-2.87,0-4.19.08V417.5a10.76,10.76,0,0,0,2.76-.43,1.9,1.9,0,0,0,1.26-1.29,9.53,9.53,0,0,0,.33-2.9V386.23a9.58,9.58,0,0,0-.33-2.93,2,2,0,0,0-1.26-1.29,9.41,9.41,0,0,0-2.76-.4v-1.08c1.32,0,2.72.07,4.19.09l4.35.05,4,0h3l5.61,0C322,380.65,323.91,380.61,325.56,380.53Zm-9.24,18.38V400h-9.84v-1.08Zm1.55-7.09c-.14,2-.2,3.6-.18,4.67s0,2.06,0,3,0,1.88.06,2.95.12,2.64.27,4.68H316.8q-.21-1.72-.51-3.36A5.19,5.19,0,0,0,315,401a4.52,4.52,0,0,0-3.36-1v-1.08a4.43,4.43,0,0,0,2.72-.72,4.26,4.26,0,0,0,1.37-1.86,10.85,10.85,0,0,0,.59-2.34c.1-.8.21-1.53.32-2.17Z"/><path class="cls-3" d="M342.22,380.53c.75,0,1.73.08,2.95.11s2.42.06,3.6.06c1.69,0,3.3,0,4.84-.06l3.28-.05a18.4,18.4,0,0,1,7.22,1.23,9.58,9.58,0,0,1,4.3,3.36,8.36,8.36,0,0,1,1.43,4.76,10.4,10.4,0,0,1-.65,3.44,9.36,9.36,0,0,1-2.23,3.44,12.1,12.1,0,0,1-4.32,2.66,19.86,19.86,0,0,1-6.94,1h-5.16v-1.07h4.63a11.44,11.44,0,0,0,5.83-1.21,6.2,6.2,0,0,0,2.74-3.22,13.3,13.3,0,0,0,.72-4.49,9.77,9.77,0,0,0-2-6.58q-2-2.34-6.91-2.34c-1.65,0-2.72.3-3.22.91s-.75,1.85-.75,3.71v26.65a9.59,9.59,0,0,0,.32,2.9,1.9,1.9,0,0,0,1.26,1.29,10.77,10.77,0,0,0,2.77.43v1.08c-.83-.07-1.85-.12-3.09-.14l-3.74,0-3.92,0c-1.22,0-2.2.07-2.95.14V417.5a10.68,10.68,0,0,0,2.76-.43,1.93,1.93,0,0,0,1.27-1.29,9.93,9.93,0,0,0,.32-2.9V386.23a10,10,0,0,0-.32-2.93A2.06,2.06,0,0,0,345,382a9.35,9.35,0,0,0-2.76-.4Zm8.54,19.08c1.93.07,3.46.15,4.57.24l2.71.24c.7.08,1.37.17,2,.27a9.39,9.39,0,0,1,5.18,2.18,9.88,9.88,0,0,1,2.34,4.92l1.34,5.48a15.06,15.06,0,0,0,1.1,3.41,1.75,1.75,0,0,0,1.75,1,2.43,2.43,0,0,0,1.53-.59,10.29,10.29,0,0,0,1.32-1.45l.8.59a10.27,10.27,0,0,1-2.33,2.55,5.64,5.64,0,0,1-3.41.89,5.48,5.48,0,0,1-3.5-1.18q-1.5-1.18-2.25-4.62l-1.19-5.38a29.25,29.25,0,0,0-1.1-4,6.3,6.3,0,0,0-1.72-2.66,4.81,4.81,0,0,0-3.25-1h-5.8Z"/></svg>