<svg xmlns="http://www.w3.org/2000/svg" xmlns:xlink="http://www.w3.org/1999/xlink" xmlns:lucid="lucid" width="1941.44" height="1478.19"><g transform="translate(0 0)" lucid:page-tab-id="0_0"><path d="M0 0h1941.44v1478.2H0z" fill="#fff"/><path d="M579.17 290.65a8 8 0 0 1 8-8h343.16a8 8 0 0 1 8 8v402a8 8 0 0 1-8 8H587.17a8 8 0 0 1-8-8z" stroke="#333" fill="#fff"/><path d="M579.17 329.8h359.16M579.17 546.55h359.16" stroke="#333" fill="none"/><use xlink:href="#a" transform="matrix(1,0,0,1,587.1666666666667,290.64734193713275) translate(124.22629123263889 25.363697193287038)"/><use xlink:href="#b" transform="matrix(1,0,0,1,591.1666666666667,337.79263273574384) translate(0 63.14576099537037)"/><use xlink:href="#c" transform="matrix(1,0,0,1,591.1666666666667,337.79263273574384) translate(19.10445601851852 63.14576099537037)"/><use xlink:href="#d" transform="matrix(1,0,0,1,591.1666666666667,337.79263273574384) translate(79.69826027199076 63.14576099537037)"/><use xlink:href="#b" transform="matrix(1,0,0,1,591.1666666666667,337.79263273574384) translate(0 94.29105179398148)"/><use xlink:href="#e" transform="matrix(1,0,0,1,591.1666666666667,337.79263273574384) translate(19.10445601851852 94.29105179398148)"/><use xlink:href="#d" transform="matrix(1,0,0,1,591.1666666666667,337.79263273574384) translate(153.57720269097223 94.29105179398148)"/><use xlink:href="#b" transform="matrix(1,0,0,1,591.1666666666667,337.79263273574384) translate(0 125.4363425925926)"/><use xlink:href="#f" transform="matrix(1,0,0,1,591.1666666666667,337.79263273574384) translate(19.10445601851852 125.4363425925926)"/><use xlink:href="#d" transform="matrix(1,0,0,1,591.1666666666667,337.79263273574384) translate(64.7163447627315 125.4363425925926)"/><use xlink:href="#b" transform="matrix(1,0,0,1,591.1666666666667,337.79263273574384) translate(0 156.5816333912037)"/><use xlink:href="#g" transform="matrix(1,0,0,1,591.1666666666667,337.79263273574384) translate(19.10445601851852 156.5816333912037)"/><use xlink:href="#h" transform="matrix(1,0,0,1,591.1666666666667,337.79263273574384) translate(117.36671730324075 156.5816333912037)"/><use xlink:href="#i" transform="matrix(1,0,0,1,591.1666666666667,554.5589811153735) translate(0 47.718406394675924)"/><use xlink:href="#j" transform="matrix(1,0,0,1,591.1666666666667,554.5589811153735) translate(24.28276909722223 47.718406394675924)"/><use xlink:href="#k" transform="matrix(1,0,0,1,591.1666666666667,554.5589811153735) translate(116.6377314814815 47.718406394675924)"/><use xlink:href="#i" transform="matrix(1,0,0,1,591.1666666666667,554.5589811153735) translate(0 78.86369719328704)"/><use xlink:href="#l" transform="matrix(1,0,0,1,591.1666666666667,554.5589811153735) translate(24.28276909722223 78.86369719328704)"/><use xlink:href="#m" transform="matrix(1,0,0,1,591.1666666666667,554.5589811153735) translate(134.2967845775463 78.86369719328704)"/><use xlink:href="#i" transform="matrix(1,0,0,1,591.1666666666667,554.5589811153735) translate(0 110.00898799189815)"/><use xlink:href="#n" transform="matrix(1,0,0,1,591.1666666666667,554.5589811153735) translate(24.28276909722223 110.00898799189815)"/><use xlink:href="#o" transform="matrix(1,0,0,1,591.1666666666667,554.5589811153735) translate(243.2298900462963 110.00898799189815)"/><path d="M539.25 51.95a12 12 0 0 1 12-12h936.17a12 12 0 0 1 12 12v39.08a12 12 0 0 1-12 12H551.25a12 12 0 0 1-12-12z" stroke="#000" stroke-opacity="0" stroke-width="2" fill="#fff" fill-opacity="0"/><use xlink:href="#p" transform="matrix(1,0,0,1,544.2462235098837,44.949381189511094) translate(193.28995605468754 37.95395833333333)"/><use xlink:href="#q" transform="matrix(1,0,0,1,544.2462235098837,44.949381189511094) translate(334.3283512369792 37.95395833333333)"/><use xlink:href="#r" transform="matrix(1,0,0,1,544.2462235098837,44.949381189511094) translate(376.3523225911459 37.95395833333333)"/><use xlink:href="#s" transform="matrix(1,0,0,1,544.2462235098837,44.949381189511094) translate(473.8097835286459 37.95395833333333)"/><use xlink:href="#t" transform="matrix(1,0,0,1,544.2462235098837,44.949381189511094) translate(544.6445817057293 37.95395833333333)"/><use xlink:href="#u" transform="matrix(1,0,0,1,544.2462235098837,44.949381189511094) translate(564.8850992838542 37.95395833333333)"/><path d="M794.38 115.82a12 12 0 0 1 12-12h430a12 12 0 0 1 12 12v9.92a12 12 0 0 1-12 12h-430a12 12 0 0 1-12-12z" stroke="#000" stroke-opacity="0" stroke-width="2" fill="#fff" fill-opacity="0"/><use xlink:href="#v" transform="matrix(1,0,0,1,799.3778077172656,108.8187440482688) translate(165.96073947482637 17.73355902777778)"/><use xlink:href="#w" transform="matrix(1,0,0,1,799.3778077172656,108.8187440482688) translate(225.75653049045138 17.73355902777778)"/><path d="M761.64 95.54h519.58M761.67 95.54h-1.03M1281.2 95.54h1.02" stroke="#b2b2b2" stroke-width="2" fill="none"/><path d="M162.17 842a8 8 0 0 1 8-8h401a8 8 0 0 1 8 8v558a8 8 0 0 1-8 8h-401a8 8 0 0 1-8-8z" stroke="#333" fill="#fff"/><path d="M162.17 881.14h417m-417 185.63h417" stroke="#333" fill="none"/><use xlink:href="#x" transform="matrix(1,0,0,1,170.16666666666674,842) translate(114.59279152199073 25.363697193287038)"/><use xlink:href="#b" transform="matrix(1,0,0,1,174.16666666666674,889.1452907986111) translate(0 63.218406394675924)"/><use xlink:href="#c" transform="matrix(1,0,0,1,174.16666666666674,889.1452907986111) translate(19.10445601851852 63.218406394675924)"/><use xlink:href="#d" transform="matrix(1,0,0,1,174.16666666666674,889.1452907986111) translate(79.69826027199076 63.218406394675924)"/><use xlink:href="#b" transform="matrix(1,0,0,1,174.16666666666674,889.1452907986111) translate(0 94.36369719328704)"/><use xlink:href="#y" transform="matrix(1,0,0,1,174.16666666666674,889.1452907986111) translate(19.10445601851852 94.36369719328704)"/><use xlink:href="#d" transform="matrix(1,0,0,1,174.16666666666674,889.1452907986111) translate(126.84353298611113 94.36369719328704)"/><use xlink:href="#b" transform="matrix(1,0,0,1,174.16666666666674,889.1452907986111) translate(0 125.50898799189815)"/><use xlink:href="#z" transform="matrix(1,0,0,1,174.16666666666674,889.1452907986111) translate(19.10445601851852 125.50898799189815)"/><use xlink:href="#A" transform="matrix(1,0,0,1,174.16666666666674,889.1452907986111) translate(132.78853804976853 125.50898799189815)"/><use xlink:href="#i" transform="matrix(1,0,0,1,174.16666666666674,1074.7663483796296) translate(0 47.78253399884257)"/><use xlink:href="#B" transform="matrix(1,0,0,1,174.16666666666674,1074.7663483796296) translate(24.28276909722223 47.78253399884257)"/><use xlink:href="#m" transform="matrix(1,0,0,1,174.16666666666674,1074.7663483796296) translate(171.04772497106487 47.78253399884257)"/><use xlink:href="#i" transform="matrix(1,0,0,1,174.16666666666674,1074.7663483796296) translate(0 78.92782479745368)"/><use xlink:href="#C" transform="matrix(1,0,0,1,174.16666666666674,1074.7663483796296) translate(24.28276909722223 78.92782479745368)"/><use xlink:href="#m" transform="matrix(1,0,0,1,174.16666666666674,1074.7663483796296) translate(177.26924189814818 78.92782479745368)"/><use xlink:href="#i" transform="matrix(1,0,0,1,174.16666666666674,1074.7663483796296) translate(0 110.0731155960648)"/><use xlink:href="#D" transform="matrix(1,0,0,1,174.16666666666674,1074.7663483796296) translate(24.28276909722223 110.0731155960648)"/><use xlink:href="#m" transform="matrix(1,0,0,1,174.16666666666674,1074.7663483796296) translate(213.7436704282408 110.0731155960648)"/><use xlink:href="#i" transform="matrix(1,0,0,1,174.16666666666674,1074.7663483796296) translate(0 141.21840639467592)"/><use xlink:href="#E" transform="matrix(1,0,0,1,174.16666666666674,1074.7663483796296) translate(24.28276909722223 141.21840639467592)"/><use xlink:href="#m" transform="matrix(1,0,0,1,174.16666666666674,1074.7663483796296) translate(244.95180483217592 141.21840639467592)"/><use xlink:href="#i" transform="matrix(1,0,0,1,174.16666666666674,1074.7663483796296) translate(0 172.363697193287)"/><use xlink:href="#F" transform="matrix(1,0,0,1,174.16666666666674,1074.7663483796296) translate(24.28276909722223 172.363697193287)"/><use xlink:href="#m" transform="matrix(1,0,0,1,174.16666666666674,1074.7663483796296) translate(212.56221064814815 172.363697193287)"/><use xlink:href="#i" transform="matrix(1,0,0,1,174.16666666666674,1074.7663483796296) translate(0 203.50898799189815)"/><use xlink:href="#G" transform="matrix(1,0,0,1,174.16666666666674,1074.7663483796296) translate(24.28276909722223 203.50898799189815)"/><use xlink:href="#m" transform="matrix(1,0,0,1,174.16666666666674,1074.7663483796296) translate(238.84340639467592 203.50898799189815)"/><use xlink:href="#i" transform="matrix(1,0,0,1,174.16666666666674,1074.7663483796296) translate(0 234.65427879050924)"/><use xlink:href="#H" transform="matrix(1,0,0,1,174.16666666666674,1074.7663483796296) translate(24.28276909722223 234.65427879050924)"/><use xlink:href="#m" transform="matrix(1,0,0,1,174.16666666666674,1074.7663483796296) translate(259.0916160300926 234.65427879050924)"/><use xlink:href="#i" transform="matrix(1,0,0,1,174.16666666666674,1074.7663483796296) translate(0 265.7995695891204)"/><use xlink:href="#I" transform="matrix(1,0,0,1,174.16666666666674,1074.7663483796296) translate(24.28276909722223 265.7995695891204)"/><use xlink:href="#m" transform="matrix(1,0,0,1,174.16666666666674,1074.7663483796296) translate(240.84183304398152 265.7995695891204)"/><use xlink:href="#i" transform="matrix(1,0,0,1,174.16666666666674,1074.7663483796296) translate(0 296.9448603877315)"/><use xlink:href="#J" transform="matrix(1,0,0,1,174.16666666666674,1074.7663483796296) translate(24.28276909722223 296.9448603877315)"/><use xlink:href="#o" transform="matrix(1,0,0,1,174.16666666666674,1074.7663483796296) translate(285.00831886574076 296.9448603877315)"/><path d="M695 842a8 8 0 0 1 8-8h493.67a8 8 0 0 1 8 8v433a8 8 0 0 1-8 8H703a8 8 0 0 1-8-8z" stroke="#333" fill="#fff"/><path d="M695 881.14h509.67M695 1097.9h509.67" stroke="#333" fill="none"/><g><use xlink:href="#K" transform="matrix(1,0,0,1,703,842) translate(197.9694191261574 25.363697193287038)"/></g><g><use xlink:href="#b" transform="matrix(1,0,0,1,707,889.1452907986111) translate(0 63.14576099537037)"/><use xlink:href="#c" transform="matrix(1,0,0,1,707,889.1452907986111) translate(19.10445601851852 63.14576099537037)"/><use xlink:href="#d" transform="matrix(1,0,0,1,707,889.1452907986111) translate(79.69826027199076 63.14576099537037)"/><use xlink:href="#b" transform="matrix(1,0,0,1,707,889.1452907986111) translate(0 94.29105179398148)"/><use xlink:href="#y" transform="matrix(1,0,0,1,707,889.1452907986111) translate(19.10445601851852 94.29105179398148)"/><use xlink:href="#d" transform="matrix(1,0,0,1,707,889.1452907986111) translate(126.84353298611113 94.29105179398148)"/><use xlink:href="#b" transform="matrix(1,0,0,1,707,889.1452907986111) translate(0 125.4363425925926)"/><use xlink:href="#z" transform="matrix(1,0,0,1,707,889.1452907986111) translate(19.10445601851852 125.4363425925926)"/><use xlink:href="#d" transform="matrix(1,0,0,1,707,889.1452907986111) translate(132.78853804976853 125.4363425925926)"/><use xlink:href="#b" transform="matrix(1,0,0,1,707,889.1452907986111) translate(0 156.5816333912037)"/><use xlink:href="#L" transform="matrix(1,0,0,1,707,889.1452907986111) translate(19.10445601851852 156.5816333912037)"/><use xlink:href="#A" transform="matrix(1,0,0,1,707,889.1452907986111) translate(65.48303674768519 156.5816333912037)"/></g><g><use xlink:href="#i" transform="matrix(1,0,0,1,707,1105.9116391782406) translate(0 47.64576099537037)"/><use xlink:href="#M" transform="matrix(1,0,0,1,707,1105.9116391782406) translate(24.28276909722223 47.64576099537037)"/><use xlink:href="#N" transform="matrix(1,0,0,1,707,1105.9116391782406) translate(288.32646122685185 47.64576099537037)"/><use xlink:href="#i" transform="matrix(1,0,0,1,707,1105.9116391782406) translate(0 78.79105179398148)"/><use xlink:href="#B" transform="matrix(1,0,0,1,707,1105.9116391782406) translate(24.28276909722223 78.79105179398148)"/><use xlink:href="#m" transform="matrix(1,0,0,1,707,1105.9116391782406) translate(171.04772497106487 78.79105179398148)"/><use xlink:href="#i" transform="matrix(1,0,0,1,707,1105.9116391782406) translate(0 109.9363425925926)"/><use xlink:href="#D" transform="matrix(1,0,0,1,707,1105.9116391782406) translate(24.28276909722223 109.9363425925926)"/><use xlink:href="#m" transform="matrix(1,0,0,1,707,1105.9116391782406) translate(213.7436704282408 109.9363425925926)"/><use xlink:href="#i" transform="matrix(1,0,0,1,707,1105.9116391782406) translate(0 141.0816333912037)"/><use xlink:href="#n" transform="matrix(1,0,0,1,707,1105.9116391782406) translate(24.28276909722223 141.0816333912037)"/><use xlink:href="#o" transform="matrix(1,0,0,1,707,1105.9116391782406) translate(243.2298900462963 141.0816333912037)"/></g><path d="M686.17 701.65v65.67h-315.5V833" stroke="#333" fill="none"/><path d="M686.64 701.66h-.95v-.5h.94zM371.14 833.5h-.95v-.5h.94z" stroke="#333" stroke-width=".05" fill="#333"/><g><use xlink:href="#O" transform="matrix(1,0,0,1,335.36740451388897,809.0418836805553) translate(0 19.949074074074076)"/></g><g><use xlink:href="#O" transform="matrix(1,0,0,1,694.1666666666669,700.6892256176883) translate(0 19.949074074074076)"/></g><path d="M824.83 701.65v65.67h125V833" stroke="#333" fill="none"/><path d="M825.3 701.66h-.94v-.5h.95zM950.3 833.5h-.94v-.5h.95z" stroke="#333" stroke-width=".05" fill="#333"/><g><use xlink:href="#O" transform="matrix(1,0,0,1,914.5340711805554,809.0418836805554) translate(0 19.949074074074076)"/></g><g><use xlink:href="#O" transform="matrix(1,0,0,1,832.8333333333334,712.2622480485647) translate(0 19.949074074074076)"/></g><path d="M1390 842a8 8 0 0 1 8-8h401a8 8 0 0 1 8 8v402a8 8 0 0 1-8 8h-401a8 8 0 0 1-8-8z" stroke="#333" fill="#fff"/><path d="M1390 881.14h417m-417 216.77h417" stroke="#333" fill="none"/><g><use xlink:href="#P" transform="matrix(1,0,0,1,1398.0000000000002,842) translate(158.3382251880787 25.363697193287038)"/></g><g><use xlink:href="#b" transform="matrix(1,0,0,1,1402.0000000000002,889.1452907986111) translate(0 63.14576099537037)"/><use xlink:href="#Q" transform="matrix(1,0,0,1,1402.0000000000002,889.1452907986111) translate(19.10445601851852 63.14576099537037)"/><use xlink:href="#d" transform="matrix(1,0,0,1,1402.0000000000002,889.1452907986111) translate(171.1608434606482 63.14576099537037)"/><use xlink:href="#b" transform="matrix(1,0,0,1,1402.0000000000002,889.1452907986111) translate(0 94.29105179398148)"/><use xlink:href="#y" transform="matrix(1,0,0,1,1402.0000000000002,889.1452907986111) translate(19.10445601851852 94.29105179398148)"/><use xlink:href="#d" transform="matrix(1,0,0,1,1402.0000000000002,889.1452907986111) translate(126.84353298611113 94.29105179398148)"/><use xlink:href="#b" transform="matrix(1,0,0,1,1402.0000000000002,889.1452907986111) translate(0 125.4363425925926)"/><use xlink:href="#z" transform="matrix(1,0,0,1,1402.0000000000002,889.1452907986111) translate(19.10445601851852 125.4363425925926)"/><use xlink:href="#d" transform="matrix(1,0,0,1,1402.0000000000002,889.1452907986111) translate(132.78853804976853 125.4363425925926)"/><use xlink:href="#b" transform="matrix(1,0,0,1,1402.0000000000002,889.1452907986111) translate(0 156.5816333912037)"/><use xlink:href="#g" transform="matrix(1,0,0,1,1402.0000000000002,889.1452907986111) translate(19.10445601851852 156.5816333912037)"/><use xlink:href="#h" transform="matrix(1,0,0,1,1402.0000000000002,889.1452907986111) translate(117.36671730324075 156.5816333912037)"/></g><g><use xlink:href="#i" transform="matrix(1,0,0,1,1402.0000000000002,1105.9116391782406) translate(0 47.718406394675924)"/><use xlink:href="#R" transform="matrix(1,0,0,1,1402.0000000000002,1105.9116391782406) translate(24.28276909722223 47.718406394675924)"/><use xlink:href="#m" transform="matrix(1,0,0,1,1402.0000000000002,1105.9116391782406) translate(202.89686414930557 47.718406394675924)"/><use xlink:href="#i" transform="matrix(1,0,0,1,1402.0000000000002,1105.9116391782406) translate(0 78.86369719328704)"/><use xlink:href="#D" transform="matrix(1,0,0,1,1402.0000000000002,1105.9116391782406) translate(24.28276909722223 78.86369719328704)"/><use xlink:href="#m" transform="matrix(1,0,0,1,1402.0000000000002,1105.9116391782406) translate(213.7436704282408 78.86369719328704)"/><use xlink:href="#i" transform="matrix(1,0,0,1,1402.0000000000002,1105.9116391782406) translate(0 110.00898799189815)"/><use xlink:href="#S" transform="matrix(1,0,0,1,1402.0000000000002,1105.9116391782406) translate(24.28276909722223 110.00898799189815)"/><use xlink:href="#T" transform="matrix(1,0,0,1,1402.0000000000002,1105.9116391782406) translate(320.86688006365745 110.00898799189815)"/></g><path d="M1274.17 239.67a8 8 0 0 1 8-8h401a8 8 0 0 1 8 8v464a8 8 0 0 1-8 8h-401a8 8 0 0 1-8-8z" stroke="#333" fill="#fff"/><path d="M1274.17 278.8h417m-417 247.92h417" stroke="#333" fill="none"/><g><use xlink:href="#U" transform="matrix(1,0,0,1,1282.166666666667,239.66666666666669) translate(175.9847095630787 25.363697193287038)"/></g><g><use xlink:href="#b" transform="matrix(1,0,0,1,1286.166666666667,286.8119574652778) translate(0 63.073115596064795)"/><use xlink:href="#V" transform="matrix(1,0,0,1,1286.166666666667,286.8119574652778) translate(19.10445601851852 63.073115596064795)"/><use xlink:href="#W" transform="matrix(1,0,0,1,1286.166666666667,286.8119574652778) translate(55.77998408564815 63.073115596064795)"/><use xlink:href="#b" transform="matrix(1,0,0,1,1286.166666666667,286.8119574652778) translate(0 94.21840639467591)"/><use xlink:href="#X" transform="matrix(1,0,0,1,1286.166666666667,286.8119574652778) translate(19.10445601851852 94.21840639467591)"/><use xlink:href="#Y" transform="matrix(1,0,0,1,1286.166666666667,286.8119574652778) translate(103.16406250000001 94.21840639467591)"/><use xlink:href="#b" transform="matrix(1,0,0,1,1286.166666666667,286.8119574652778) translate(0 125.36369719328702)"/><use xlink:href="#g" transform="matrix(1,0,0,1,1286.166666666667,286.8119574652778) translate(19.10445601851852 125.36369719328702)"/><use xlink:href="#d" transform="matrix(1,0,0,1,1286.166666666667,286.8119574652778) translate(117.36671730324075 125.36369719328702)"/><use xlink:href="#b" transform="matrix(1,0,0,1,1286.166666666667,286.8119574652778) translate(0 156.50898799189815)"/><use xlink:href="#Z" transform="matrix(1,0,0,1,1286.166666666667,286.8119574652778) translate(19.10445601851852 156.50898799189815)"/><use xlink:href="#d" transform="matrix(1,0,0,1,1286.166666666667,286.8119574652778) translate(177.75942201967598 156.50898799189815)"/><use xlink:href="#b" transform="matrix(1,0,0,1,1286.166666666667,286.8119574652778) translate(0 187.65427879050924)"/><use xlink:href="#aa" transform="matrix(1,0,0,1,1286.166666666667,286.8119574652778) translate(19.10445601851852 187.65427879050924)"/><use xlink:href="#A" transform="matrix(1,0,0,1,1286.166666666667,286.8119574652778) translate(164.02180989583337 187.65427879050924)"/></g><g><use xlink:href="#i" transform="matrix(1,0,0,1,1286.166666666667,534.7235966435186) translate(0 47.64576099537037)"/><use xlink:href="#B" transform="matrix(1,0,0,1,1286.166666666667,534.7235966435186) translate(24.28276909722223 47.64576099537037)"/><use xlink:href="#m" transform="matrix(1,0,0,1,1286.166666666667,534.7235966435186) translate(171.04772497106487 47.64576099537037)"/><use xlink:href="#i" transform="matrix(1,0,0,1,1286.166666666667,534.7235966435186) translate(0 78.79105179398148)"/><use xlink:href="#D" transform="matrix(1,0,0,1,1286.166666666667,534.7235966435186) translate(24.28276909722223 78.79105179398148)"/><use xlink:href="#m" transform="matrix(1,0,0,1,1286.166666666667,534.7235966435186) translate(213.7436704282408 78.79105179398148)"/><use xlink:href="#i" transform="matrix(1,0,0,1,1286.166666666667,534.7235966435186) translate(0 109.9363425925926)"/><use xlink:href="#ab" transform="matrix(1,0,0,1,1286.166666666667,534.7235966435186) translate(24.28276909722223 109.9363425925926)"/><use xlink:href="#m" transform="matrix(1,0,0,1,1286.166666666667,534.7235966435186) translate(222.81828703703704 109.9363425925926)"/><use xlink:href="#i" transform="matrix(1,0,0,1,1286.166666666667,534.7235966435186) translate(0 141.0816333912037)"/><use xlink:href="#ac" transform="matrix(1,0,0,1,1286.166666666667,534.7235966435186) translate(24.28276909722223 141.0816333912037)"/><use xlink:href="#o" transform="matrix(1,0,0,1,1286.166666666667,534.7235966435186) translate(221.2346281828704 141.0816333912037)"/></g><path d="M1067.5 833V471.67h205.67" stroke="#333" fill="none"/><path d="M1067.97 833.5h-.94v-.5h.94zM1273.67 472.14h-.52v-.95h.52z" stroke="#333" stroke-width=".05" fill="#333"/><g><use xlink:href="#ad" transform="matrix(1,0,0,1,1075.5,809.0418836805555) translate(0 19.949074074074076)"/></g><g><use xlink:href="#ae" transform="matrix(1,0,0,1,1244.0467303240748,442.75043402777777) translate(0 19.949074074074076)"/></g><path d="M1598.5 833v-60.17h-123.06v-60.16" stroke="#333" fill="none"/><path d="M1598.97 833.5h-.94v-.5h.94zM1475.9 712.68h-.94v-.5h.95z" stroke="#333" stroke-width=".05" fill="#333"/><g><use xlink:href="#ad" transform="matrix(1,0,0,1,1606.5000000000002,809.0418836805555) translate(0 19.949074074074076)"/></g><g><use xlink:href="#af" transform="matrix(1,0,0,1,1442.8144066117868,711.7085503472222) translate(0 19.949074074074076)"/></g><defs><path fill="#333" d="M677 24c-359 0-556-231-505-538l162-976h190L363-516c-36 218 86 364 321 364 246 0 428-159 464-377l159-961h190l-163 989c-51 309-312 525-657 525" id="ag"/><path fill="#333" d="M451 24C217 22 71-78 61-277l174-29c11 123 90 172 219 172 161 0 280-83 297-181 11-71-30-117-135-143l-179-44c-195-48-280-153-253-316 31-186 223-314 455-314 233 4 337 107 366 275l-165 30c-18-80-65-152-204-152-138 0-256 75-272 174-13 77 32 118 158 149l162 40c195 48 278 154 252 313C904-113 708 24 451 24" id="ah"/><path fill="#333" d="M443 14C219 14 87-123 134-408l117-710h180L317-423c-28 171 49 275 206 275s300-105 332-300l110-670h181L961 0H787l35-209C722-47 590 14 443 14" id="ai"/><path fill="#333" d="M481 24C202 24 45-202 104-557s293-575 571-575c216 0 263 132 291 193h15l29-179h181L1006 0H831l28-173h-21C788-107 693 24 481 24zm56-161c204 0 342-174 383-422s-41-412-245-412c-215 0-350 183-388 412-39 235 39 422 250 422" id="aj"/><path fill="#333" d="M66 0l185-1118h174l-28 172h12c78-136 219-209 411-185l-30 181c-211-47-398 67-428 250L246 0H66" id="ak"/><path fill="#333" d="M66 0l185-1118h180L246 0H66zm307-1301c-71 0-117-55-106-119s74-119 145-119c65 0 117 50 106 118s-78 120-145 120" id="al"/><path fill="#333" d="M528 24C258 24 94-156 94-433c0-355 229-699 603-699 270 0 436 178 436 458 0 359-234 698-605 698zm4-161c275 0 420-287 420-533 0-170-77-301-260-301-271 0-418 288-418 536 0 168 77 298 258 298" id="am"/><g id="a"><use transform="matrix(0.012568721064814816,0,0,0.012568721064814816,0,0)" xlink:href="#ag"/><use transform="matrix(0.012568721064814816,0,0,0.012568721064814816,19.142162181712965,0)" xlink:href="#ah"/><use transform="matrix(0.012568721064814816,0,0,0.012568721064814816,32.71638093171297,0)" xlink:href="#ai"/><use transform="matrix(0.012568721064814816,0,0,0.012568721064814816,47.949670862268526,0)" xlink:href="#aj"/><use transform="matrix(0.012568721064814816,0,0,0.012568721064814816,63.74855324074075,0)" xlink:href="#ak"/><use transform="matrix(0.012568721064814816,0,0,0.012568721064814816,73.85380497685186,0)" xlink:href="#al"/><use transform="matrix(0.012568721064814816,0,0,0.012568721064814816,80.10045934606482,0)" xlink:href="#am"/></g><path fill="#333" d="M826-719l-28 166H144l28-166h654" id="an"/><use transform="matrix(0.012568721064814816,0,0,0.012568721064814816,0,0)" xlink:href="#an" id="b"/><path fill="#333" d="M492 24C248 24 94-147 94-425c0-352 212-707 569-707 222 0 274 136 303 198h12l92-556h181L1004 0H829l30-173h-19C792-103 700 24 492 24zm32-161c268 0 407-295 407-549 0-175-80-285-247-285-266 0-408 283-408 536 0 174 79 298 248 298" id="ao"/><path fill="#333" d="M528 24C258 24 94-156 94-433c0-354 228-699 603-699 222 0 381 120 410 314l-176 39c-14-114-95-192-238-192-272 0-419 288-419 536 0 167 76 298 258 298 155 0 277-90 329-211l166 58C935-93 745 24 528 24" id="ap"/><path fill="#333" d="M211 13C134 13 76-52 90-134c12-70 77-122 143-122 81 0 133 67 122 143-10 69-73 126-144 126zm133-809c-77 0-135-65-121-147 12-70 77-122 143-122 81 0 133 67 122 143-10 69-73 126-144 126" id="aq"/><g id="c"><use transform="matrix(0.012568721064814816,0,0,0.012568721064814816,0,0)" xlink:href="#ao"/><use transform="matrix(0.012568721064814816,0,0,0.012568721064814816,15.773744936342595,0)" xlink:href="#am"/><use transform="matrix(0.012568721064814816,0,0,0.012568721064814816,31.22070312500001,0)" xlink:href="#ap"/><use transform="matrix(0.012568721064814816,0,0,0.012568721064814816,45.93867549189816,0)" xlink:href="#aq"/></g><path fill="#333" d="M691-1118l-25 154H437L325-290c-17 103 16 144 108 144 23 0 63-6 94-12L538-6c-36 12-87 20-136 20-196 0-290-109-260-290l114-688H88l25-154h169l44-266h180l-44 266h229" id="ar"/><path fill="#333" d="M356-664L245 0H65l186-1118h173l-32 197c96-152 219-211 366-211 232 0 366 145 319 428L960 0H779l117-701c29-174-48-269-198-269-165 0-310 115-342 306" id="as"/><path fill="#333" d="M456 442C197 442 73 327 25 209l155-84c33 60 86 160 280 160 184 0 332-89 363-272l37-218-16 4C793-134 707-18 498-18 260-18 96-170 96-443c0-341 216-689 568-689 222 0 274 139 301 198l21-5 30-179h175L999 35c-48 288-275 407-543 407zm75-620c274 0 401-267 401-512 0-170-80-281-247-281-260 0-408 269-408 518 0 167 83 275 254 275" id="at"/><g id="d"><use transform="matrix(0.012568721064814816,0,0,0.012568721064814816,0,0)" xlink:href="#ah"/><use transform="matrix(0.012568721064814816,0,0,0.012568721064814816,13.574218750000002,0)" xlink:href="#ar"/><use transform="matrix(0.012568721064814816,0,0,0.012568721064814816,22.020399305555557,0)" xlink:href="#ak"/><use transform="matrix(0.012568721064814816,0,0,0.012568721064814816,32.12565104166667,0)" xlink:href="#al"/><use transform="matrix(0.012568721064814816,0,0,0.012568721064814816,38.37230541087963,0)" xlink:href="#as"/><use transform="matrix(0.012568721064814816,0,0,0.012568721064814816,53.593026620370374,0)" xlink:href="#at"/></g><path fill="#333" d="M-4 418l255-1536h174l-30 179h9c47-68 143-193 355-193 246 0 401 170 401 447 0 348-211 709-568 709-219 0-274-140-300-202h-17l-99 596H-4zm572-555c267 0 411-296 411-543 0-170-78-291-250-291-269 0-405 284-405 542 0 177 81 292 244 292" id="au"/><path fill="#333" d="M317 0L163-1118h191c34 329 72 559 91 925 130-352 253-602 392-925h192c32 328 66 558 83 922 132-350 256-600 396-922h191L1175 0H996c-36-314-76-577-98-915C766-585 635-312 496 0H317" id="av"/><g id="e"><use transform="matrix(0.012568721064814816,0,0,0.012568721064814816,0,0)" xlink:href="#au"/><use transform="matrix(0.012568721064814816,0,0,0.012568721064814816,15.773744936342595,0)" xlink:href="#aj"/><use transform="matrix(0.012568721064814816,0,0,0.012568721064814816,31.57262731481482,0)" xlink:href="#ah"/><use transform="matrix(0.012568721064814816,0,0,0.012568721064814816,45.146846064814824,0)" xlink:href="#ah"/><use transform="matrix(0.012568721064814816,0,0,0.012568721064814816,58.721064814814824,0)" xlink:href="#av"/><use transform="matrix(0.012568721064814816,0,0,0.012568721064814816,79.3211986400463,0)" xlink:href="#am"/><use transform="matrix(0.012568721064814816,0,0,0.012568721064814816,94.76815682870371,0)" xlink:href="#ak"/><use transform="matrix(0.012568721064814816,0,0,0.012568721064814816,104.04387297453702,0)" xlink:href="#ao"/><use transform="matrix(0.012568721064814816,0,0,0.012568721064814816,119.81761791087962,0)" xlink:href="#aq"/></g><path fill="#333" d="M492-1490L245 0H65l247-1490h180" id="aw"/><g id="f"><use transform="matrix(0.012568721064814816,0,0,0.012568721064814816,0,0)" xlink:href="#ak"/><use transform="matrix(0.012568721064814816,0,0,0.012568721064814816,9.275716145833334,0)" xlink:href="#am"/><use transform="matrix(0.012568721064814816,0,0,0.012568721064814816,24.722674334490744,0)" xlink:href="#aw"/><use transform="matrix(0.012568721064814816,0,0,0.012568721064814816,30.956759982638893,0)" xlink:href="#aq"/></g><path fill="#333" d="M535 24C259 24 94-144 94-427c0-392 272-715 610-715 216 0 356 119 356 305 0 244-237 344-790 350-18 199 49 349 276 352 142 0 260-66 317-173l167 47C947-85 756 24 535 24zM294-623c447-4 586-57 586-218 0-85-78-141-194-141-220 0-342 177-392 359" id="ax"/><g id="g"><use transform="matrix(0.012568721064814816,0,0,0.012568721064814816,0,0)" xlink:href="#ax"/><use transform="matrix(0.012568721064814816,0,0,0.012568721064814816,14.818522135416668,0)" xlink:href="#ah"/><use transform="matrix(0.012568721064814816,0,0,0.012568721064814816,28.39274088541667,0)" xlink:href="#ar"/><use transform="matrix(0.012568721064814816,0,0,0.012568721064814816,36.58754701967593,0)" xlink:href="#aj"/><use transform="matrix(0.012568721064814816,0,0,0.012568721064814816,52.38642939814815,0)" xlink:href="#ao"/><use transform="matrix(0.012568721064814816,0,0,0.012568721064814816,68.16017433449075,0)" xlink:href="#am"/><use transform="matrix(0.012568721064814816,0,0,0.012568721064814816,83.60713252314815,0)" xlink:href="#aq"/></g><path fill="#333" d="M592 24c-216 0-276-130-305-197h-18L239 0H65l247-1490h180l-92 551h15c51-63 134-193 344-193 246 0 401 170 401 447 0 348-211 709-568 709zm-24-161c267 0 411-296 411-543 0-170-78-291-250-291-269 0-405 284-405 542 0 177 81 292 244 292" id="ay"/><g id="h"><use transform="matrix(0.012568721064814816,0,0,0.012568721064814816,0,0)" xlink:href="#ay"/><use transform="matrix(0.012568721064814816,0,0,0.012568721064814816,15.773744936342595,0)" xlink:href="#am"/><use transform="matrix(0.012568721064814816,0,0,0.012568721064814816,31.22070312500001,0)" xlink:href="#am"/><use transform="matrix(0.012568721064814816,0,0,0.012568721064814816,46.66766131365742,0)" xlink:href="#aw"/><use transform="matrix(0.012568721064814816,0,0,0.012568721064814816,52.90174696180557,0)" xlink:href="#ax"/><use transform="matrix(0.012568721064814816,0,0,0.012568721064814816,67.72026909722224,0)" xlink:href="#aj"/><use transform="matrix(0.012568721064814816,0,0,0.012568721064814816,83.51915147569447,0)" xlink:href="#as"/></g><path fill="#333" d="M517-100l66-397H185l28-172h398l66-397h169l-66 397h398l-28 172H752l-66 397H517" id="az"/><use transform="matrix(0.012568721064814816,0,0,0.012568721064814816,0,0)" xlink:href="#az" id="i"/><path fill="#333" d="M226-608c54-324 228-726 419-973h175c-209 318-363 684-411 972-44 264-11 530 103 888H337C213-15 178-320 226-608" id="aA"/><path fill="#333" d="M-43 280C186-71 310-340 354-607c48-291 15-654-89-973h176c108 246 149 649 95 974-48 289-184 595-403 886H-43" id="aB"/><g id="j"><use transform="matrix(0.012568721064814816,0,0,0.012568721064814816,0,0)" xlink:href="#aw"/><use transform="matrix(0.012568721064814816,0,0,0.012568721064814816,6.234085648148149,0)" xlink:href="#am"/><use transform="matrix(0.012568721064814816,0,0,0.012568721064814816,21.681043836805557,0)" xlink:href="#at"/><use transform="matrix(0.012568721064814816,0,0,0.012568721064814816,37.46735749421297,0)" xlink:href="#al"/><use transform="matrix(0.012568721064814816,0,0,0.012568721064814816,43.71401186342593,0)" xlink:href="#as"/><use transform="matrix(0.012568721064814816,0,0,0.012568721064814816,58.93473307291667,0)" xlink:href="#aA"/><use transform="matrix(0.012568721064814816,0,0,0.012568721064814816,68.32356770833334,0)" xlink:href="#aB"/><use transform="matrix(0.012568721064814816,0,0,0.012568721064814816,77.69983362268519,0)" xlink:href="#aq"/></g><g id="k"><use transform="matrix(0.012568721064814816,0,0,0.012568721064814816,0,0)" xlink:href="#ay"/><use transform="matrix(0.012568721064814816,0,0,0.012568721064814816,15.773744936342595,0)" xlink:href="#am"/><use transform="matrix(0.012568721064814816,0,0,0.012568721064814816,31.22070312500001,0)" xlink:href="#am"/><use transform="matrix(0.012568721064814816,0,0,0.012568721064814816,46.66766131365742,0)" xlink:href="#aw"/><use transform="matrix(0.012568721064814816,0,0,0.012568721064814816,52.90174696180557,0)" xlink:href="#ax"/><use transform="matrix(0.012568721064814816,0,0,0.012568721064814816,67.72026909722224,0)" xlink:href="#aj"/><use transform="matrix(0.012568721064814816,0,0,0.012568721064814816,83.51915147569447,0)" xlink:href="#as"/></g><g id="l"><use transform="matrix(0.012568721064814816,0,0,0.012568721064814816,0,0)" xlink:href="#aw"/><use transform="matrix(0.012568721064814816,0,0,0.012568721064814816,6.234085648148149,0)" xlink:href="#am"/><use transform="matrix(0.012568721064814816,0,0,0.012568721064814816,21.681043836805557,0)" xlink:href="#at"/><use transform="matrix(0.012568721064814816,0,0,0.012568721064814816,37.46735749421297,0)" xlink:href="#am"/><use transform="matrix(0.012568721064814816,0,0,0.012568721064814816,52.914315682870374,0)" xlink:href="#ai"/><use transform="matrix(0.012568721064814816,0,0,0.012568721064814816,68.14760561342594,0)" xlink:href="#ar"/><use transform="matrix(0.012568721064814816,0,0,0.012568721064814816,76.5937861689815,0)" xlink:href="#aA"/><use transform="matrix(0.012568721064814816,0,0,0.012568721064814816,85.98262080439817,0)" xlink:href="#aB"/><use transform="matrix(0.012568721064814816,0,0,0.012568721064814816,95.35888671875001,0)" xlink:href="#aq"/></g><path fill="#333" d="M389 0L147-1118h188c55 314 135 617 168 951 141-329 323-637 482-951h205L578 0H389" id="aC"/><g id="m"><use transform="matrix(0.012568721064814816,0,0,0.012568721064814816,0,0)" xlink:href="#aC"/><use transform="matrix(0.012568721064814816,0,0,0.012568721064814816,13.963849103009258,0)" xlink:href="#am"/><use transform="matrix(0.012568721064814816,0,0,0.012568721064814816,29.41080729166667,0)" xlink:href="#al"/><use transform="matrix(0.012568721064814816,0,0,0.012568721064814816,35.65746166087963,0)" xlink:href="#ao"/></g><path fill="#333" d="M33 0l23-134 752-806 2-11H211l27-167h839l-24 143-732 797-2 11h620L912 0H33" id="aD"/><path fill="#333" d="M87 0l247-1490h510c346 0 473 206 430 472s-238 479-586 479H366L277 0H87zm307-706h312c241 0 351-138 379-311s-39-306-279-306H496" id="aE"/><path fill="#333" d="M780-1118l-24 146H497L317 116C281 334 148 448-56 448c-43 0-82-5-117-17l45-161c143 34 239 0 264-153L316-972H89l24-146h227l13-77c43-287 254-417 541-345l-50 154c-23-5-81-8-121-8-107 0-167 63-189 196l-13 80h259" id="aF"/><g id="n"><use transform="matrix(0.012568721064814816,0,0,0.012568721064814816,0,0)" xlink:href="#aj"/><use transform="matrix(0.012568721064814816,0,0,0.012568721064814816,15.798882378472225,0)" xlink:href="#ap"/><use transform="matrix(0.012568721064814816,0,0,0.012568721064814816,30.516854745370374,0)" xlink:href="#ar"/><use transform="matrix(0.012568721064814816,0,0,0.012568721064814816,38.96303530092593,0)" xlink:href="#ai"/><use transform="matrix(0.012568721064814816,0,0,0.012568721064814816,54.19632523148149,0)" xlink:href="#aj"/><use transform="matrix(0.012568721064814816,0,0,0.012568721064814816,69.99520760995371,0)" xlink:href="#aw"/><use transform="matrix(0.012568721064814816,0,0,0.012568721064814816,76.22929325810186,0)" xlink:href="#al"/><use transform="matrix(0.012568721064814816,0,0,0.012568721064814816,82.47594762731482,0)" xlink:href="#aD"/><use transform="matrix(0.012568721064814816,0,0,0.012568721064814816,96.31410951967594,0)" xlink:href="#aj"/><use transform="matrix(0.012568721064814816,0,0,0.012568721064814816,112.11299189814817,0)" xlink:href="#ak"/><use transform="matrix(0.012568721064814816,0,0,0.012568721064814816,122.21824363425928,0)" xlink:href="#aE"/><use transform="matrix(0.012568721064814816,0,0,0.012568721064814816,138.5198748553241,0)" xlink:href="#ax"/><use transform="matrix(0.012568721064814816,0,0,0.012568721064814816,153.33839699074076,0)" xlink:href="#ak"/><use transform="matrix(0.012568721064814816,0,0,0.012568721064814816,163.44364872685188,0)" xlink:href="#aF"/><use transform="matrix(0.012568721064814816,0,0,0.012568721064814816,173.04615162037038,0)" xlink:href="#al"/><use transform="matrix(0.012568721064814816,0,0,0.012568721064814816,179.29280598958334,0)" xlink:href="#aw"/><use transform="matrix(0.012568721064814816,0,0,0.012568721064814816,185.5268916377315,0)" xlink:href="#aA"/><use transform="matrix(0.012568721064814816,0,0,0.012568721064814816,194.91572627314815,0)" xlink:href="#aB"/><use transform="matrix(0.012568721064814816,0,0,0.012568721064814816,204.2919921875,0)" xlink:href="#aq"/></g><g id="o"><use transform="matrix(0.012568721064814816,0,0,0.012568721064814816,0,0)" xlink:href="#aC"/><use transform="matrix(0.012568721064814816,0,0,0.012568721064814816,13.963849103009258,0)" xlink:href="#am"/><use transform="matrix(0.012568721064814816,0,0,0.012568721064814816,29.41080729166667,0)" xlink:href="#al"/><use transform="matrix(0.012568721064814816,0,0,0.012568721064814816,35.65746166087963,0)" xlink:href="#ao"/></g><path fill="#b2b2b2" d="M659 0H135v-1490h529c448 0 721 280 721 744 0 466-273 746-726 746zM440-263h204c287 0 437-148 437-483 0-333-150-481-435-481H440v964" id="aG"/><path fill="#b2b2b2" d="M128 0v-1118h300V0H128zm150-1264c-91 0-165-68-165-154 0-85 74-154 165-154 90 0 165 69 165 154 0 86-75 154-165 154" id="aH"/><path fill="#b2b2b2" d="M440 22C227 22 68-92 68-313c0-250 202-322 422-343 195-21 271-24 271-105 0-95-63-149-175-149-116 0-187 57-211 129l-275-46c57-194 237-305 487-305 240 0 474 108 474 379V0H777v-155h-10C713-51 605 22 440 22zm85-211c140 0 238-93 238-211v-121c-37 26-156 42-222 51-111 16-185 59-185 149 0 87 70 132 169 132" id="aI"/><path fill="#b2b2b2" d="M625 442c-280 0-454-114-503-274l258-72c28 63 97 128 243 128 153 0 246-69 246-216v-206h-23C805-108 717-16 536-16 284-16 81-191 81-561c0-378 208-571 456-571 188 0 280 113 321 202h13v-188h295V-9c0 303-226 451-541 451zm5-686c153 0 240-119 240-319 0-198-86-329-240-329-158 0-241 137-241 329 0 195 85 319 241 319" id="aJ"/><path fill="#b2b2b2" d="M128 0v-1118h290v195h12c54-169 184-238 367-200v268c-27-8-86-15-130-15-138 0-239 95-239 234V0H128" id="aK"/><path fill="#b2b2b2" d="M128 0v-1118h278l12 217c60-163 185-234 319-234 143 0 236 81 288 251 63-172 205-251 359-251 205 0 357 138 357 381V0h-301v-697c0-126-76-187-177-187-114 0-184 79-184 196V0H789v-705c0-109-72-179-174-179-106 0-187 74-187 208V0H128" id="aL"/><g id="p"><use transform="matrix(0.014026692708333333,0,0,0.014026692708333333,0,0)" xlink:href="#aG"/><use transform="matrix(0.014026692708333333,0,0,0.014026692708333333,20.745478515625,0)" xlink:href="#aH"/><use transform="matrix(0.014026692708333333,0,0,0.014026692708333333,28.530292968749997,0)" xlink:href="#aI"/><use transform="matrix(0.014026692708333333,0,0,0.014026692708333333,45.20803059895833,0)" xlink:href="#aJ"/><use transform="matrix(0.014026692708333333,0,0,0.014026692708333333,63.358570963541666,0)" xlink:href="#aK"/><use transform="matrix(0.014026692708333333,0,0,0.014026692708333333,74.66408528645833,0)" xlink:href="#aI"/><use transform="matrix(0.014026692708333333,0,0,0.014026692708333333,91.34182291666667,0)" xlink:href="#aL"/><use transform="matrix(0.014026692708333333,0,0,0.014026692708333333,117.55771158854166,0)" xlink:href="#aI"/></g><path fill="#b2b2b2" d="M537 19C279 19 81-185 81-557c0-382 206-575 454-575 190 0 278 113 318 202h10v-560h300V0H868v-179h-15C812-89 719 19 537 19zm92-241c153 0 240-134 240-336 0-203-86-334-240-334-158 0-240 138-240 334 0 197 84 336 240 336" id="aM"/><path fill="#b2b2b2" d="M633 22C291 22 81-200 81-553c0-345 210-579 537-579 292 0 525 185 525 567v84H378c7 183 109 277 260 277 105 0 184-46 216-132l272 51C1071-99 893 22 633 22zM380-669h474c-15-146-94-237-233-237-143 0-229 99-241 237" id="aN"/><g id="q"><use transform="matrix(0.014026692708333333,0,0,0.014026692708333333,0,0)" xlink:href="#aM"/><use transform="matrix(0.014026692708333333,0,0,0.014026692708333333,18.10846028645833,0)" xlink:href="#aN"/></g><path fill="#b2b2b2" d="M628 22C291 22 81-210 81-554c0-346 210-578 547-578 265 0 455 142 497 372l-279 52c-25-116-99-188-215-188-160 0-244 139-244 341 0 200 84 341 244 341 116 0 193-74 217-195l279 51C1085-123 896 22 628 22" id="aO"/><path fill="#b2b2b2" d="M428-1490V0H128v-1490h300" id="aP"/><path fill="#b2b2b2" d="M572 22C302 22 117-98 78-306l279-48c29 105 101 156 224 156 114 0 185-48 185-115 0-118-228-130-337-155-215-49-322-150-322-317 0-215 187-347 470-347 265 0 424 116 466 298l-266 47c-24-76-87-130-196-130-98 0-174 46-174 113 0 56 38 95 144 117l201 40c216 44 320 143 320 302 0 220-207 367-500 367" id="aQ"/><g id="r"><use transform="matrix(0.014026692708333333,0,0,0.014026692708333333,0,0)" xlink:href="#aO"/><use transform="matrix(0.014026692708333333,0,0,0.014026692708333333,16.902164713541666,0)" xlink:href="#aP"/><use transform="matrix(0.014026692708333333,0,0,0.014026692708333333,24.686979166666667,0)" xlink:href="#aI"/><use transform="matrix(0.014026692708333333,0,0,0.014026692708333333,41.364716796875,0)" xlink:href="#aQ"/><use transform="matrix(0.014026692708333333,0,0,0.014026692708333333,57.45333333333333,0)" xlink:href="#aN"/><use transform="matrix(0.014026692708333333,0,0,0.014026692708333333,74.5658984375,0)" xlink:href="#aQ"/></g><path fill="#b2b2b2" d="M750 21c-371 0-615-218-615-544v-967h305v942c0 174 123 299 310 299s309-125 309-299v-942h306v967c0 326-247 544-615 544" id="aR"/><path fill="#b2b2b2" d="M135 0v-1490h468l242 684c30 94 76 293 111 455 34-161 80-360 110-455l238-684h470V0h-307c0-447-3-765 11-1227-122 503-246 788-395 1227H826C676-435 552-717 427-1215c15 453 11 775 11 1215H135" id="aS"/><path fill="#b2b2b2" d="M135 0v-1490h305v1237h643V0H135" id="aT"/><g id="s"><use transform="matrix(0.014026692708333333,0,0,0.014026692708333333,0,0)" xlink:href="#aR"/><use transform="matrix(0.014026692708333333,0,0,0.014026692708333333,21.026012369791665,0)" xlink:href="#aS"/><use transform="matrix(0.014026692708333333,0,0,0.014026692708333333,47.78894205729166,0)" xlink:href="#aT"/></g><path fill="#b2b2b2" d="M818-733v240H140v-240h678" id="aU"/><use transform="matrix(0.014026692708333333,0,0,0.014026692708333333,0,0)" xlink:href="#aU" id="t"/><path fill="#b2b2b2" d="M135 0v-1490h591c327 0 492 160 492 383 0 177-115 286-268 320v15c168 8 326 140 326 361 0 236-176 411-512 411H135zm305-251h264c179 0 258-76 258-189 0-125-97-215-250-215H440v404zm0-613h241c131 0 228-74 228-194 0-109-79-183-222-183H440v377" id="aV"/><path fill="#b2b2b2" d="M120 396l69-226c123 42 245 23 254-107l8-60L31-1118h319c87 288 199 559 259 872 72-308 185-583 277-872h315L726 132c-68 181-186 294-410 294-79 0-153-13-196-30" id="aW"/><path fill="#b2b2b2" d="M428-647V0H128v-1118h283l4 231c63-156 176-245 348-245 232 0 384 159 384 421V0H847v-659c0-139-76-222-202-222-128 0-217 86-217 234" id="aX"/><path fill="#b2b2b2" d="M754 19C571 19 479-89 437-179h-14V0H128v-1490h300v560h9c41-89 129-202 319-202 248 0 453 193 453 575 0 372-197 576-455 576zm-92-241c156 0 240-139 240-336 0-196-83-334-240-334-154 0-241 131-241 334 0 202 88 336 241 336" id="aY"/><g id="u"><use transform="matrix(0.014026692708333333,0,0,0.014026692708333333,0,0)" xlink:href="#aV"/><use transform="matrix(0.014026692708333333,0,0,0.014026692708333333,19.006168619791666,0)" xlink:href="#aK"/><use transform="matrix(0.014026692708333333,0,0,0.014026692708333333,30.311682942708334,0)" xlink:href="#aI"/><use transform="matrix(0.014026692708333333,0,0,0.014026692708333333,46.498486328125,0)" xlink:href="#aW"/><use transform="matrix(0.014026692708333333,0,0,0.014026692708333333,63.51286458333332,0)" xlink:href="#aI"/><use transform="matrix(0.014026692708333333,0,0,0.014026692708333333,80.19060221354167,0)" xlink:href="#aX"/><use transform="matrix(0.014026692708333333,0,0,0.014026692708333333,98.07463541666667,0)" xlink:href="#aV"/><use transform="matrix(0.014026692708333333,0,0,0.014026692708333333,117.08080403645833,0)" xlink:href="#aI"/><use transform="matrix(0.014026692708333333,0,0,0.014026692708333333,133.75854166666667,0)" xlink:href="#aK"/><use transform="matrix(0.014026692708333333,0,0,0.014026692708333333,145.90565755208334,0)" xlink:href="#aY"/><use transform="matrix(0.014026692708333333,0,0,0.014026692708333333,164.01411783854167,0)" xlink:href="#aN"/><use transform="matrix(0.014026692708333333,0,0,0.014026692708333333,181.12668294270833,0)" xlink:href="#aK"/></g><path fill="#b2b2b2" d="M180 0v-1490h528c311 0 458 177 458 395 0 191-114 278-244 313v14c139 9 302 137 302 371 0 225-148 397-499 397H180zm190-168h350c232 0 321-102 321-231 0-149-120-277-311-277H370v508zm0-668h328c160 0 286-101 286-255 0-129-87-231-280-231H370v486" id="aZ"/><path fill="#b2b2b2" d="M158 0v-1118h174v172h12c41-113 157-188 290-188 26 0 70 2 91 3v181c-11-2-60-10-108-10-161 0-279 109-279 260V0H158" id="ba"/><path fill="#b2b2b2" d="M471 26C259 26 90-98 90-318c0-256 228-303 435-329 202-27 287-16 287-108 0-139-79-219-234-219-161 0-248 86-283 164l-173-57c86-203 278-265 451-265 150 0 419 46 419 395V0H815v-152h-12C765-73 660 26 471 26zm31-159c199 0 310-134 310-271v-155c-30 35-226 55-295 64-131 17-246 59-246 186 0 116 97 176 231 176" id="bb"/><path fill="#b2b2b2" d="M140 405l46-156c120 36 205 19 263-150l32-93L54-1118h197c107 313 237 620 324 950 87-331 219-637 326-950h196L606 167c-68 178-176 259-334 259-64 0-113-12-132-21" id="bc"/><path fill="#b2b2b2" d="M338-670V0H158v-1118h173l1 207c72-158 192-221 342-221 226 0 378 139 378 422V0H872v-695c0-172-96-275-252-275-161 0-282 109-282 300" id="bd"/><g id="v"><use transform="matrix(0.008182237413194446,0,0,0.008182237413194446,0,0)" xlink:href="#aZ"/><use transform="matrix(0.008182237413194446,0,0,0.008182237413194446,10.964198133680558,0)" xlink:href="#ba"/><use transform="matrix(0.008182237413194446,0,0,0.008182237413194446,17.272703179253476,0)" xlink:href="#bb"/><use transform="matrix(0.008182237413194446,0,0,0.008182237413194446,26.436809082031253,0)" xlink:href="#bc"/><use transform="matrix(0.008182237413194446,0,0,0.008182237413194446,35.772741970486116,0)" xlink:href="#bb"/><use transform="matrix(0.008182237413194446,0,0,0.008182237413194446,45.18231499565973,0)" xlink:href="#bd"/></g><path fill="#b2b2b2" d="M677 24c-213 0-288-135-325-197h-20V0H158v-1490h180v551h14c37-59 106-193 324-193 279 0 474 222 474 576 0 356-194 580-473 580zm-27-161c209 0 317-186 317-421 0-232-105-413-317-413-206 0-314 166-314 413 0 249 111 421 314 421" id="be"/><path fill="#b2b2b2" d="M628 24c-324 0-524-230-524-574 0-343 198-582 503-582 237 0 487 146 487 559v75H286c9 234 145 362 343 362 132 0 231-58 273-172l174 48C1024-91 857 24 628 24zM287-650h624c-17-190-120-322-304-322-192 0-309 151-320 322" id="bf"/><g id="w"><use transform="matrix(0.008182237413194446,0,0,0.008182237413194446,0,0)" xlink:href="#aZ"/><use transform="matrix(0.008182237413194446,0,0,0.008182237413194446,10.964198133680558,0)" xlink:href="#bb"/><use transform="matrix(0.008182237413194446,0,0,0.008182237413194446,20.37377115885417,0)" xlink:href="#ba"/><use transform="matrix(0.008182237413194446,0,0,0.008182237413194446,26.94410780164931,0)" xlink:href="#be"/><use transform="matrix(0.008182237413194446,0,0,0.008182237413194446,37.204633517795145,0)" xlink:href="#bf"/><use transform="matrix(0.008182237413194446,0,0,0.008182237413194446,46.97422498914931,0)" xlink:href="#ba"/></g><path fill="#333" d="M-41 0l788-1490h220L1268 0h-192l-80-416H383L169 0H-41zm509-582h497c-56-293-77-375-126-756-162 359-224 468-371 756" id="bg"/><path fill="#333" d="M65 0l186-1118h175l-31 195c80-148 212-215 337-215 153 0 236 96 255 228 75-143 223-228 382-228 199 0 341 131 298 390L1543 0h-181l126-756c27-162-65-218-177-218-160 0-274 111-297 250L894 0H714l128-773c21-127-57-201-174-201-136 0-277 97-307 277L245 0H65" id="bh"/><g id="x"><use transform="matrix(0.012568721064814816,0,0,0.012568721064814816,0,0)" xlink:href="#bg"/><use transform="matrix(0.012568721064814816,0,0,0.012568721064814816,17.759602864583336,0)" xlink:href="#ao"/><use transform="matrix(0.012568721064814816,0,0,0.012568721064814816,33.53334780092593,0)" xlink:href="#bh"/><use transform="matrix(0.012568721064814816,0,0,0.012568721064814816,56.08163339120371,0)" xlink:href="#al"/><use transform="matrix(0.012568721064814816,0,0,0.012568721064814816,62.32828776041667,0)" xlink:href="#as"/><use transform="matrix(0.012568721064814816,0,0,0.012568721064814816,77.54900896990742,0)" xlink:href="#al"/><use transform="matrix(0.012568721064814816,0,0,0.012568721064814816,83.79566333912038,0)" xlink:href="#ah"/><use transform="matrix(0.012568721064814816,0,0,0.012568721064814816,97.36988208912038,0)" xlink:href="#ar"/><use transform="matrix(0.012568721064814816,0,0,0.012568721064814816,105.81606264467594,0)" xlink:href="#ak"/><use transform="matrix(0.012568721064814816,0,0,0.012568721064814816,115.09177879050928,0)" xlink:href="#aj"/><use transform="matrix(0.012568721064814816,0,0,0.012568721064814816,130.8906611689815,0)" xlink:href="#ao"/><use transform="matrix(0.012568721064814816,0,0,0.012568721064814816,146.66440610532408,0)" xlink:href="#am"/><use transform="matrix(0.012568721064814816,0,0,0.012568721064814816,162.1113642939815,0)" xlink:href="#ak"/></g><g id="y"><use transform="matrix(0.012568721064814816,0,0,0.012568721064814816,0,0)" xlink:href="#as"/><use transform="matrix(0.012568721064814816,0,0,0.012568721064814816,15.220721209490742,0)" xlink:href="#am"/><use transform="matrix(0.012568721064814816,0,0,0.012568721064814816,30.667679398148152,0)" xlink:href="#bh"/><use transform="matrix(0.012568721064814816,0,0,0.012568721064814816,53.21596498842593,0)" xlink:href="#ay"/><use transform="matrix(0.012568721064814816,0,0,0.012568721064814816,68.98970992476853,0)" xlink:href="#ak"/><use transform="matrix(0.012568721064814816,0,0,0.012568721064814816,78.26542607060186,0)" xlink:href="#ax"/><use transform="matrix(0.012568721064814816,0,0,0.012568721064814816,93.08394820601853,0)" xlink:href="#aq"/></g><g id="z"><use transform="matrix(0.012568721064814816,0,0,0.012568721064814816,0,0)" xlink:href="#ar"/><use transform="matrix(0.012568721064814816,0,0,0.012568721064814816,8.194806134259261,0)" xlink:href="#ax"/><use transform="matrix(0.012568721064814816,0,0,0.012568721064814816,23.01332826967593,0)" xlink:href="#aw"/><use transform="matrix(0.012568721064814816,0,0,0.012568721064814816,29.247413917824076,0)" xlink:href="#ax"/><use transform="matrix(0.012568721064814816,0,0,0.012568721064814816,44.06593605324075,0)" xlink:href="#aF"/><use transform="matrix(0.012568721064814816,0,0,0.012568721064814816,52.914315682870374,0)" xlink:href="#am"/><use transform="matrix(0.012568721064814816,0,0,0.012568721064814816,68.36127387152779,0)" xlink:href="#as"/><use transform="matrix(0.012568721064814816,0,0,0.012568721064814816,83.58199508101853,0)" xlink:href="#am"/><use transform="matrix(0.012568721064814816,0,0,0.012568721064814816,99.02895326967594,0)" xlink:href="#aq"/></g><g id="A"><use transform="matrix(0.012568721064814816,0,0,0.012568721064814816,0,0)" xlink:href="#ah"/><use transform="matrix(0.012568721064814816,0,0,0.012568721064814816,13.574218750000002,0)" xlink:href="#ar"/><use transform="matrix(0.012568721064814816,0,0,0.012568721064814816,22.020399305555557,0)" xlink:href="#ak"/><use transform="matrix(0.012568721064814816,0,0,0.012568721064814816,32.12565104166667,0)" xlink:href="#al"/><use transform="matrix(0.012568721064814816,0,0,0.012568721064814816,38.37230541087963,0)" xlink:href="#as"/><use transform="matrix(0.012568721064814816,0,0,0.012568721064814816,53.593026620370374,0)" xlink:href="#at"/></g><path fill="#333" d="M698 20c-339 0-559-226-559-600 0-470 305-930 790-930 306 0 529 181 531 489h-190c-8-202-157-313-348-313-373 0-599 380-599 749 0 281 158 429 382 429 202 0 399-111 474-313h191C1267-166 997 20 698 20" id="bi"/><g id="B"><use transform="matrix(0.012568721064814816,0,0,0.012568721064814816,0,0)" xlink:href="#ap"/><use transform="matrix(0.012568721064814816,0,0,0.012568721064814816,14.71797236689815,0)" xlink:href="#ak"/><use transform="matrix(0.012568721064814816,0,0,0.012568721064814816,23.993688512731485,0)" xlink:href="#ax"/><use transform="matrix(0.012568721064814816,0,0,0.012568721064814816,38.81221064814815,0)" xlink:href="#aj"/><use transform="matrix(0.012568721064814816,0,0,0.012568721064814816,54.61109302662038,0)" xlink:href="#ak"/><use transform="matrix(0.012568721064814816,0,0,0.012568721064814816,64.31414568865742,0)" xlink:href="#bi"/><use transform="matrix(0.012568721064814816,0,0,0.012568721064814816,83.10438368055557,0)" xlink:href="#al"/><use transform="matrix(0.012568721064814816,0,0,0.012568721064814816,89.35103804976853,0)" xlink:href="#ar"/><use transform="matrix(0.012568721064814816,0,0,0.012568721064814816,97.5458441840278,0)" xlink:href="#aj"/><use transform="matrix(0.012568721064814816,0,0,0.012568721064814816,113.34472656250004,0)" xlink:href="#aA"/><use transform="matrix(0.012568721064814816,0,0,0.012568721064814816,122.7335611979167,0)" xlink:href="#aB"/><use transform="matrix(0.012568721064814816,0,0,0.012568721064814816,132.10982711226856,0)" xlink:href="#aq"/></g><g id="C"><use transform="matrix(0.012568721064814816,0,0,0.012568721064814816,0,0)" xlink:href="#ax"/><use transform="matrix(0.012568721064814816,0,0,0.012568721064814816,14.818522135416668,0)" xlink:href="#ao"/><use transform="matrix(0.012568721064814816,0,0,0.012568721064814816,30.592267071759263,0)" xlink:href="#al"/><use transform="matrix(0.012568721064814816,0,0,0.012568721064814816,36.83892144097223,0)" xlink:href="#ar"/><use transform="matrix(0.012568721064814816,0,0,0.012568721064814816,45.03372757523149,0)" xlink:href="#aj"/><use transform="matrix(0.012568721064814816,0,0,0.012568721064814816,60.83260995370371,0)" xlink:href="#ak"/><use transform="matrix(0.012568721064814816,0,0,0.012568721064814816,70.53566261574075,0)" xlink:href="#bi"/><use transform="matrix(0.012568721064814816,0,0,0.012568721064814816,89.3259006076389,0)" xlink:href="#al"/><use transform="matrix(0.012568721064814816,0,0,0.012568721064814816,95.57255497685186,0)" xlink:href="#ar"/><use transform="matrix(0.012568721064814816,0,0,0.012568721064814816,103.76736111111113,0)" xlink:href="#aj"/><use transform="matrix(0.012568721064814816,0,0,0.012568721064814816,119.56624348958334,0)" xlink:href="#aA"/><use transform="matrix(0.012568721064814816,0,0,0.012568721064814816,128.95507812500003,0)" xlink:href="#aB"/><use transform="matrix(0.012568721064814816,0,0,0.012568721064814816,138.33134403935188,0)" xlink:href="#aq"/></g><g id="D"><use transform="matrix(0.012568721064814816,0,0,0.012568721064814816,0,0)" xlink:href="#ap"/><use transform="matrix(0.012568721064814816,0,0,0.012568721064814816,14.71797236689815,0)" xlink:href="#aj"/><use transform="matrix(0.012568721064814816,0,0,0.012568721064814816,30.516854745370374,0)" xlink:href="#as"/><use transform="matrix(0.012568721064814816,0,0,0.012568721064814816,45.737575954861114,0)" xlink:href="#ap"/><use transform="matrix(0.012568721064814816,0,0,0.012568721064814816,60.45554832175927,0)" xlink:href="#ax"/><use transform="matrix(0.012568721064814816,0,0,0.012568721064814816,75.27407045717594,0)" xlink:href="#aw"/><use transform="matrix(0.012568721064814816,0,0,0.012568721064814816,81.50815610532409,0)" xlink:href="#aj"/><use transform="matrix(0.012568721064814816,0,0,0.012568721064814816,97.30703848379632,0)" xlink:href="#ak"/><use transform="matrix(0.012568721064814816,0,0,0.012568721064814816,107.01009114583334,0)" xlink:href="#bi"/><use transform="matrix(0.012568721064814816,0,0,0.012568721064814816,125.80032913773152,0)" xlink:href="#al"/><use transform="matrix(0.012568721064814816,0,0,0.012568721064814816,132.04698350694449,0)" xlink:href="#ar"/><use transform="matrix(0.012568721064814816,0,0,0.012568721064814816,140.24178964120375,0)" xlink:href="#aj"/><use transform="matrix(0.012568721064814816,0,0,0.012568721064814816,156.04067201967598,0)" xlink:href="#aA"/><use transform="matrix(0.012568721064814816,0,0,0.012568721064814816,165.42950665509264,0)" xlink:href="#aB"/><use transform="matrix(0.012568721064814816,0,0,0.012568721064814816,174.80577256944449,0)" xlink:href="#aq"/></g><g id="E"><use transform="matrix(0.012568721064814816,0,0,0.012568721064814816,0,0)" xlink:href="#ak"/><use transform="matrix(0.012568721064814816,0,0,0.012568721064814816,9.275716145833334,0)" xlink:href="#ax"/><use transform="matrix(0.012568721064814816,0,0,0.012568721064814816,24.09423828125,0)" xlink:href="#at"/><use transform="matrix(0.012568721064814816,0,0,0.012568721064814816,39.88055193865741,0)" xlink:href="#al"/><use transform="matrix(0.012568721064814816,0,0,0.012568721064814816,46.127206307870374,0)" xlink:href="#ah"/><use transform="matrix(0.012568721064814816,0,0,0.012568721064814816,59.70142505787038,0)" xlink:href="#ar"/><use transform="matrix(0.012568721064814816,0,0,0.012568721064814816,68.14760561342592,0)" xlink:href="#ak"/><use transform="matrix(0.012568721064814816,0,0,0.012568721064814816,77.42332175925925,0)" xlink:href="#aj"/><use transform="matrix(0.012568721064814816,0,0,0.012568721064814816,93.22220413773148,0)" xlink:href="#ak"/><use transform="matrix(0.012568721064814816,0,0,0.012568721064814816,102.92525679976852,0)" xlink:href="#bi"/><use transform="matrix(0.012568721064814816,0,0,0.012568721064814816,121.71549479166669,0)" xlink:href="#aw"/><use transform="matrix(0.012568721064814816,0,0,0.012568721064814816,127.94958043981484,0)" xlink:href="#al"/><use transform="matrix(0.012568721064814816,0,0,0.012568721064814816,134.1962348090278,0)" xlink:href="#ax"/><use transform="matrix(0.012568721064814816,0,0,0.012568721064814816,149.01475694444446,0)" xlink:href="#as"/><use transform="matrix(0.012568721064814816,0,0,0.012568721064814816,164.2354781539352,0)" xlink:href="#ar"/><use transform="matrix(0.012568721064814816,0,0,0.012568721064814816,172.43028428819446,0)" xlink:href="#ax"/><use transform="matrix(0.012568721064814816,0,0,0.012568721064814816,187.24880642361111,0)" xlink:href="#aA"/><use transform="matrix(0.012568721064814816,0,0,0.012568721064814816,196.63764105902777,0)" xlink:href="#aB"/><use transform="matrix(0.012568721064814816,0,0,0.012568721064814816,206.01390697337962,0)" xlink:href="#aq"/></g><g id="F"><use transform="matrix(0.012568721064814816,0,0,0.012568721064814816,0,0)" xlink:href="#ax"/><use transform="matrix(0.012568721064814816,0,0,0.012568721064814816,14.818522135416668,0)" xlink:href="#ao"/><use transform="matrix(0.012568721064814816,0,0,0.012568721064814816,30.592267071759263,0)" xlink:href="#al"/><use transform="matrix(0.012568721064814816,0,0,0.012568721064814816,36.83892144097223,0)" xlink:href="#ar"/><use transform="matrix(0.012568721064814816,0,0,0.012568721064814816,45.03372757523149,0)" xlink:href="#aj"/><use transform="matrix(0.012568721064814816,0,0,0.012568721064814816,60.83260995370371,0)" xlink:href="#ak"/><use transform="matrix(0.012568721064814816,0,0,0.012568721064814816,70.53566261574075,0)" xlink:href="#bi"/><use transform="matrix(0.012568721064814816,0,0,0.012568721064814816,89.3259006076389,0)" xlink:href="#aw"/><use transform="matrix(0.012568721064814816,0,0,0.012568721064814816,95.55998625578705,0)" xlink:href="#al"/><use transform="matrix(0.012568721064814816,0,0,0.012568721064814816,101.80664062500001,0)" xlink:href="#ax"/><use transform="matrix(0.012568721064814816,0,0,0.012568721064814816,116.62516276041669,0)" xlink:href="#as"/><use transform="matrix(0.012568721064814816,0,0,0.012568721064814816,131.84588396990742,0)" xlink:href="#ar"/><use transform="matrix(0.012568721064814816,0,0,0.012568721064814816,140.04069010416669,0)" xlink:href="#ax"/><use transform="matrix(0.012568721064814816,0,0,0.012568721064814816,154.85921223958334,0)" xlink:href="#aA"/><use transform="matrix(0.012568721064814816,0,0,0.012568721064814816,164.248046875,0)" xlink:href="#aB"/><use transform="matrix(0.012568721064814816,0,0,0.012568721064814816,173.62431278935185,0)" xlink:href="#aq"/></g><g id="G"><use transform="matrix(0.012568721064814816,0,0,0.012568721064814816,0,0)" xlink:href="#ax"/><use transform="matrix(0.012568721064814816,0,0,0.012568721064814816,14.818522135416668,0)" xlink:href="#aw"/><use transform="matrix(0.012568721064814816,0,0,0.012568721064814816,21.052607783564817,0)" xlink:href="#al"/><use transform="matrix(0.012568721064814816,0,0,0.012568721064814816,27.299262152777782,0)" xlink:href="#bh"/><use transform="matrix(0.012568721064814816,0,0,0.012568721064814816,49.84754774305556,0)" xlink:href="#al"/><use transform="matrix(0.012568721064814816,0,0,0.012568721064814816,56.09420211226851,0)" xlink:href="#as"/><use transform="matrix(0.012568721064814816,0,0,0.012568721064814816,71.31492332175927,0)" xlink:href="#aj"/><use transform="matrix(0.012568721064814816,0,0,0.012568721064814816,87.1138057002315,0)" xlink:href="#ak"/><use transform="matrix(0.012568721064814816,0,0,0.012568721064814816,96.81685836226853,0)" xlink:href="#bi"/><use transform="matrix(0.012568721064814816,0,0,0.012568721064814816,115.60709635416669,0)" xlink:href="#aw"/><use transform="matrix(0.012568721064814816,0,0,0.012568721064814816,121.84118200231482,0)" xlink:href="#al"/><use transform="matrix(0.012568721064814816,0,0,0.012568721064814816,128.0878363715278,0)" xlink:href="#ax"/><use transform="matrix(0.012568721064814816,0,0,0.012568721064814816,142.90635850694446,0)" xlink:href="#as"/><use transform="matrix(0.012568721064814816,0,0,0.012568721064814816,158.1270797164352,0)" xlink:href="#ar"/><use transform="matrix(0.012568721064814816,0,0,0.012568721064814816,166.32188585069446,0)" xlink:href="#ax"/><use transform="matrix(0.012568721064814816,0,0,0.012568721064814816,181.14040798611111,0)" xlink:href="#aA"/><use transform="matrix(0.012568721064814816,0,0,0.012568721064814816,190.52924262152777,0)" xlink:href="#aB"/><use transform="matrix(0.012568721064814816,0,0,0.012568721064814816,199.90550853587962,0)" xlink:href="#aq"/></g><path fill="#333" d="M87 0l247-1490h522c311 0 433 182 398 403-29 183-158 272-300 309v10c139 9 280 144 242 380C1160-164 988 0 639 0H87zm218-167h345c236 0 346-113 367-247 23-147-78-262-262-262H390zm111-669h323c157 0 307-105 334-265 21-124-42-222-237-222H497" id="bj"/><g id="H"><use transform="matrix(0.012568721064814816,0,0,0.012568721064814816,0,0)" xlink:href="#ak"/><use transform="matrix(0.012568721064814816,0,0,0.012568721064814816,9.275716145833334,0)" xlink:href="#ax"/><use transform="matrix(0.012568721064814816,0,0,0.012568721064814816,24.09423828125,0)" xlink:href="#at"/><use transform="matrix(0.012568721064814816,0,0,0.012568721064814816,39.88055193865741,0)" xlink:href="#al"/><use transform="matrix(0.012568721064814816,0,0,0.012568721064814816,46.127206307870374,0)" xlink:href="#ah"/><use transform="matrix(0.012568721064814816,0,0,0.012568721064814816,59.70142505787038,0)" xlink:href="#ar"/><use transform="matrix(0.012568721064814816,0,0,0.012568721064814816,68.14760561342592,0)" xlink:href="#ak"/><use transform="matrix(0.012568721064814816,0,0,0.012568721064814816,77.42332175925925,0)" xlink:href="#aj"/><use transform="matrix(0.012568721064814816,0,0,0.012568721064814816,93.22220413773148,0)" xlink:href="#ak"/><use transform="matrix(0.012568721064814816,0,0,0.012568721064814816,103.32745587384261,0)" xlink:href="#bj"/><use transform="matrix(0.012568721064814816,0,0,0.012568721064814816,120.16954210069446,0)" xlink:href="#aj"/><use transform="matrix(0.012568721064814816,0,0,0.012568721064814816,135.96842447916669,0)" xlink:href="#ak"/><use transform="matrix(0.012568721064814816,0,0,0.012568721064814816,146.0736762152778,0)" xlink:href="#ay"/><use transform="matrix(0.012568721064814816,0,0,0.012568721064814816,161.84742115162038,0)" xlink:href="#ax"/><use transform="matrix(0.012568721064814816,0,0,0.012568721064814816,176.66594328703704,0)" xlink:href="#ak"/><use transform="matrix(0.012568721064814816,0,0,0.012568721064814816,185.94165943287038,0)" xlink:href="#am"/><use transform="matrix(0.012568721064814816,0,0,0.012568721064814816,201.3886176215278,0)" xlink:href="#aA"/><use transform="matrix(0.012568721064814816,0,0,0.012568721064814816,210.77745225694449,0)" xlink:href="#aB"/><use transform="matrix(0.012568721064814816,0,0,0.012568721064814816,220.15371817129633,0)" xlink:href="#aq"/></g><g id="I"><use transform="matrix(0.012568721064814816,0,0,0.012568721064814816,0,0)" xlink:href="#aj"/><use transform="matrix(0.012568721064814816,0,0,0.012568721064814816,15.798882378472225,0)" xlink:href="#ap"/><use transform="matrix(0.012568721064814816,0,0,0.012568721064814816,30.516854745370374,0)" xlink:href="#ar"/><use transform="matrix(0.012568721064814816,0,0,0.012568721064814816,38.96303530092593,0)" xlink:href="#al"/><use transform="matrix(0.012568721064814816,0,0,0.012568721064814816,45.20968967013889,0)" xlink:href="#aC"/><use transform="matrix(0.012568721064814816,0,0,0.012568721064814816,59.17353877314815,0)" xlink:href="#aj"/><use transform="matrix(0.012568721064814816,0,0,0.012568721064814816,74.97242115162038,0)" xlink:href="#ak"/><use transform="matrix(0.012568721064814816,0,0,0.012568721064814816,85.0776728877315,0)" xlink:href="#bj"/><use transform="matrix(0.012568721064814816,0,0,0.012568721064814816,101.91975911458334,0)" xlink:href="#aj"/><use transform="matrix(0.012568721064814816,0,0,0.012568721064814816,117.71864149305557,0)" xlink:href="#ak"/><use transform="matrix(0.012568721064814816,0,0,0.012568721064814816,127.82389322916669,0)" xlink:href="#ay"/><use transform="matrix(0.012568721064814816,0,0,0.012568721064814816,143.5976381655093,0)" xlink:href="#ax"/><use transform="matrix(0.012568721064814816,0,0,0.012568721064814816,158.41616030092595,0)" xlink:href="#ak"/><use transform="matrix(0.012568721064814816,0,0,0.012568721064814816,167.6918764467593,0)" xlink:href="#am"/><use transform="matrix(0.012568721064814816,0,0,0.012568721064814816,183.1388346354167,0)" xlink:href="#aA"/><use transform="matrix(0.012568721064814816,0,0,0.012568721064814816,192.52766927083337,0)" xlink:href="#aB"/><use transform="matrix(0.012568721064814816,0,0,0.012568721064814816,201.90393518518522,0)" xlink:href="#aq"/></g><g id="J"><use transform="matrix(0.012568721064814816,0,0,0.012568721064814816,0,0)" xlink:href="#ao"/><use transform="matrix(0.012568721064814816,0,0,0.012568721064814816,15.773744936342595,0)" xlink:href="#ax"/><use transform="matrix(0.012568721064814816,0,0,0.012568721064814816,30.592267071759263,0)" xlink:href="#ah"/><use transform="matrix(0.012568721064814816,0,0,0.012568721064814816,44.16648582175927,0)" xlink:href="#aj"/><use transform="matrix(0.012568721064814816,0,0,0.012568721064814816,59.9653682002315,0)" xlink:href="#ap"/><use transform="matrix(0.012568721064814816,0,0,0.012568721064814816,74.68334056712965,0)" xlink:href="#ar"/><use transform="matrix(0.012568721064814816,0,0,0.012568721064814816,83.1295211226852,0)" xlink:href="#al"/><use transform="matrix(0.012568721064814816,0,0,0.012568721064814816,89.37617549189817,0)" xlink:href="#aC"/><use transform="matrix(0.012568721064814816,0,0,0.012568721064814816,103.34002459490742,0)" xlink:href="#aj"/><use transform="matrix(0.012568721064814816,0,0,0.012568721064814816,119.13890697337965,0)" xlink:href="#ak"/><use transform="matrix(0.012568721064814816,0,0,0.012568721064814816,129.24415870949076,0)" xlink:href="#bj"/><use transform="matrix(0.012568721064814816,0,0,0.012568721064814816,146.0862449363426,0)" xlink:href="#aj"/><use transform="matrix(0.012568721064814816,0,0,0.012568721064814816,161.88512731481484,0)" xlink:href="#ak"/><use transform="matrix(0.012568721064814816,0,0,0.012568721064814816,171.99037905092595,0)" xlink:href="#ay"/><use transform="matrix(0.012568721064814816,0,0,0.012568721064814816,187.76412398726853,0)" xlink:href="#ax"/><use transform="matrix(0.012568721064814816,0,0,0.012568721064814816,202.5826461226852,0)" xlink:href="#ak"/><use transform="matrix(0.012568721064814816,0,0,0.012568721064814816,211.85836226851853,0)" xlink:href="#am"/><use transform="matrix(0.012568721064814816,0,0,0.012568721064814816,227.30532045717595,0)" xlink:href="#aA"/><use transform="matrix(0.012568721064814816,0,0,0.012568721064814816,236.6941550925926,0)" xlink:href="#aB"/><use transform="matrix(0.012568721064814816,0,0,0.012568721064814816,246.07042100694449,0)" xlink:href="#aq"/></g><g id="K"><use transform="matrix(0.012568721064814816,0,0,0.012568721064814816,0,0)" xlink:href="#bj"/><use transform="matrix(0.012568721064814816,0,0,0.012568721064814816,16.842086226851855,0)" xlink:href="#aj"/><use transform="matrix(0.012568721064814816,0,0,0.012568721064814816,32.640968605324076,0)" xlink:href="#ak"/><use transform="matrix(0.012568721064814816,0,0,0.012568721064814816,42.74622034143519,0)" xlink:href="#ay"/><use transform="matrix(0.012568721064814816,0,0,0.012568721064814816,58.519965277777786,0)" xlink:href="#ax"/><use transform="matrix(0.012568721064814816,0,0,0.012568721064814816,73.33848741319446,0)" xlink:href="#ak"/><use transform="matrix(0.012568721064814816,0,0,0.012568721064814816,82.61420355902779,0)" xlink:href="#am"/></g><g id="L"><use transform="matrix(0.012568721064814816,0,0,0.012568721064814816,0,0)" xlink:href="#ao"/><use transform="matrix(0.012568721064814816,0,0,0.012568721064814816,15.773744936342595,0)" xlink:href="#al"/><use transform="matrix(0.012568721064814816,0,0,0.012568721064814816,22.020399305555557,0)" xlink:href="#ak"/><use transform="matrix(0.012568721064814816,0,0,0.012568721064814816,31.723451967592595,0)" xlink:href="#aq"/></g><g id="M"><use transform="matrix(0.012568721064814816,0,0,0.012568721064814816,0,0)" xlink:href="#aC"/><use transform="matrix(0.012568721064814816,0,0,0.012568721064814816,13.963849103009258,0)" xlink:href="#ax"/><use transform="matrix(0.012568721064814816,0,0,0.012568721064814816,28.78237123842593,0)" xlink:href="#ak"/><use transform="matrix(0.012568721064814816,0,0,0.012568721064814816,38.48542390046296,0)" xlink:href="#bi"/><use transform="matrix(0.012568721064814816,0,0,0.012568721064814816,57.27566189236112,0)" xlink:href="#al"/><use transform="matrix(0.012568721064814816,0,0,0.012568721064814816,63.52231626157407,0)" xlink:href="#ar"/><use transform="matrix(0.012568721064814816,0,0,0.012568721064814816,71.71712239583334,0)" xlink:href="#aj"/><use transform="matrix(0.012568721064814816,0,0,0.012568721064814816,87.51600477430557,0)" xlink:href="#ah"/><use transform="matrix(0.012568721064814816,0,0,0.012568721064814816,101.09022352430557,0)" xlink:href="#bg"/><use transform="matrix(0.012568721064814816,0,0,0.012568721064814816,118.8498263888889,0)" xlink:href="#ah"/><use transform="matrix(0.012568721064814816,0,0,0.012568721064814816,132.4240451388889,0)" xlink:href="#al"/><use transform="matrix(0.012568721064814816,0,0,0.012568721064814816,138.67069950810188,0)" xlink:href="#at"/><use transform="matrix(0.012568721064814816,0,0,0.012568721064814816,154.4570131655093,0)" xlink:href="#as"/><use transform="matrix(0.012568721064814816,0,0,0.012568721064814816,169.67773437500003,0)" xlink:href="#aj"/><use transform="matrix(0.012568721064814816,0,0,0.012568721064814816,185.47661675347226,0)" xlink:href="#ao"/><use transform="matrix(0.012568721064814816,0,0,0.012568721064814816,201.25036168981484,0)" xlink:href="#aj"/><use transform="matrix(0.012568721064814816,0,0,0.012568721064814816,217.04924406828707,0)" xlink:href="#ah"/><use transform="matrix(0.012568721064814816,0,0,0.012568721064814816,230.62346281828707,0)" xlink:href="#aA"/><use transform="matrix(0.012568721064814816,0,0,0.012568721064814816,240.01229745370372,0)" xlink:href="#aB"/><use transform="matrix(0.012568721064814816,0,0,0.012568721064814816,249.3885633680556,0)" xlink:href="#aq"/></g><path fill="#333" d="M87 0l247-1490h190L304-167h690L967 0H87" id="bk"/><path fill="#333" d="M168-520l22-126 1020-476-30 196-770 340-1 10 657 338-33 194" id="bl"/><path fill="#333" d="M1173-520L153-44l33-194 767-339v-11L301-926l29-196 865 476" id="bm"/><g id="N"><use transform="matrix(0.012568721064814816,0,0,0.012568721064814816,0,0)" xlink:href="#bk"/><use transform="matrix(0.012568721064814816,0,0,0.012568721064814816,14.554578993055557,0)" xlink:href="#al"/><use transform="matrix(0.012568721064814816,0,0,0.012568721064814816,20.80123336226852,0)" xlink:href="#ah"/><use transform="matrix(0.012568721064814816,0,0,0.012568721064814816,34.37545211226852,0)" xlink:href="#ar"/><use transform="matrix(0.012568721064814816,0,0,0.012568721064814816,42.09264684606482,0)" xlink:href="#bl"/><use transform="matrix(0.012568721064814816,0,0,0.012568721064814816,59.13583260995371,0)" xlink:href="#bi"/><use transform="matrix(0.012568721064814816,0,0,0.012568721064814816,77.92607060185186,0)" xlink:href="#al"/><use transform="matrix(0.012568721064814816,0,0,0.012568721064814816,84.17272497106482,0)" xlink:href="#ar"/><use transform="matrix(0.012568721064814816,0,0,0.012568721064814816,92.36753110532409,0)" xlink:href="#aj"/><use transform="matrix(0.012568721064814816,0,0,0.012568721064814816,108.1664134837963,0)" xlink:href="#bm"/></g><path d="M646 20c-332 0-524-278-524-764 0-483 194-766 524-766s524 283 524 766c0 485-191 764-524 764zm0-166c218 0 341-220 341-598 0-380-123-601-341-601s-341 222-341 601c0 378 123 598 341 598" id="bn"/><path d="M295 13c-75 0-135-60-135-135s60-135 135-135 135 60 135 135S370 13 295 13zm0-809c-75 0-135-60-135-135s60-135 135-135 135 60 135 135-60 135-135 135" id="bo"/><path d="M653-1490V0H466v-1314h-10L96-1047v-204l324-239h233" id="bp"/><g id="O"><use transform="matrix(0.010054976851851853,0,0,0.010054976851851853,0,0)" xlink:href="#bn"/><use transform="matrix(0.010054976851851853,0,0,0.010054976851851853,12.991030092592593,0)" xlink:href="#bo"/><use transform="matrix(0.010054976851851853,0,0,0.010054976851851853,18.923466435185187,0)" xlink:href="#bp"/></g><g id="P"><use transform="matrix(0.012568721064814816,0,0,0.012568721064814816,0,0)" xlink:href="#bi"/><use transform="matrix(0.012568721064814816,0,0,0.012568721064814816,18.79023799189815,0)" xlink:href="#aw"/><use transform="matrix(0.012568721064814816,0,0,0.012568721064814816,25.024323640046298,0)" xlink:href="#al"/><use transform="matrix(0.012568721064814816,0,0,0.012568721064814816,31.270978009259256,0)" xlink:href="#ax"/><use transform="matrix(0.012568721064814816,0,0,0.012568721064814816,46.089500144675924,0)" xlink:href="#as"/><use transform="matrix(0.012568721064814816,0,0,0.012568721064814816,61.310221354166664,0)" xlink:href="#ar"/><use transform="matrix(0.012568721064814816,0,0,0.012568721064814816,69.50502748842592,0)" xlink:href="#ax"/></g><g id="Q"><use transform="matrix(0.012568721064814816,0,0,0.012568721064814816,0,0)" xlink:href="#ao"/><use transform="matrix(0.012568721064814816,0,0,0.012568721064814816,15.773744936342595,0)" xlink:href="#am"/><use transform="matrix(0.012568721064814816,0,0,0.012568721064814816,31.22070312500001,0)" xlink:href="#ap"/><use transform="matrix(0.012568721064814816,0,0,0.012568721064814816,45.93867549189816,0)" xlink:href="#ai"/><use transform="matrix(0.012568721064814816,0,0,0.012568721064814816,61.17196542245371,0)" xlink:href="#bh"/><use transform="matrix(0.012568721064814816,0,0,0.012568721064814816,83.7202510127315,0)" xlink:href="#ax"/><use transform="matrix(0.012568721064814816,0,0,0.012568721064814816,98.53877314814817,0)" xlink:href="#as"/><use transform="matrix(0.012568721064814816,0,0,0.012568721064814816,113.7594943576389,0)" xlink:href="#ar"/><use transform="matrix(0.012568721064814816,0,0,0.012568721064814816,121.95430049189818,0)" xlink:href="#am"/><use transform="matrix(0.012568721064814816,0,0,0.012568721064814816,137.4012586805556,0)" xlink:href="#aq"/></g><g id="R"><use transform="matrix(0.012568721064814816,0,0,0.012568721064814816,0,0)" xlink:href="#ah"/><use transform="matrix(0.012568721064814816,0,0,0.012568721064814816,13.574218750000002,0)" xlink:href="#am"/><use transform="matrix(0.012568721064814816,0,0,0.012568721064814816,29.021176938657412,0)" xlink:href="#aw"/><use transform="matrix(0.012568721064814816,0,0,0.012568721064814816,35.25526258680556,0)" xlink:href="#al"/><use transform="matrix(0.012568721064814816,0,0,0.012568721064814816,41.50191695601852,0)" xlink:href="#ap"/><use transform="matrix(0.012568721064814816,0,0,0.012568721064814816,56.21988932291667,0)" xlink:href="#al"/><use transform="matrix(0.012568721064814816,0,0,0.012568721064814816,62.46654369212964,0)" xlink:href="#ar"/><use transform="matrix(0.012568721064814816,0,0,0.012568721064814816,70.66134982638889,0)" xlink:href="#aj"/><use transform="matrix(0.012568721064814816,0,0,0.012568721064814816,86.46023220486111,0)" xlink:href="#ak"/><use transform="matrix(0.012568721064814816,0,0,0.012568721064814816,96.16328486689815,0)" xlink:href="#bi"/><use transform="matrix(0.012568721064814816,0,0,0.012568721064814816,114.9535228587963,0)" xlink:href="#al"/><use transform="matrix(0.012568721064814816,0,0,0.012568721064814816,121.20017722800928,0)" xlink:href="#ar"/><use transform="matrix(0.012568721064814816,0,0,0.012568721064814816,129.39498336226853,0)" xlink:href="#aj"/><use transform="matrix(0.012568721064814816,0,0,0.012568721064814816,145.19386574074076,0)" xlink:href="#aA"/><use transform="matrix(0.012568721064814816,0,0,0.012568721064814816,154.58270037615742,0)" xlink:href="#aB"/><use transform="matrix(0.012568721064814816,0,0,0.012568721064814816,163.95896629050927,0)" xlink:href="#aq"/></g><path fill="#333" d="M-28 0l489-573-281-545h202c65 135 144 295 195 434 91-140 226-300 336-434h214L662-564 960 0H756c-70-143-156-309-211-458C447-309 301-142 185 0H-28" id="bq"/><g id="S"><use transform="matrix(0.012568721064814816,0,0,0.012568721064814816,0,0)" xlink:href="#ap"/><use transform="matrix(0.012568721064814816,0,0,0.012568721064814816,14.71797236689815,0)" xlink:href="#am"/><use transform="matrix(0.012568721064814816,0,0,0.012568721064814816,30.16493055555556,0)" xlink:href="#as"/><use transform="matrix(0.012568721064814816,0,0,0.012568721064814816,45.385651765046305,0)" xlink:href="#ah"/><use transform="matrix(0.012568721064814816,0,0,0.012568721064814816,58.959870515046305,0)" xlink:href="#ai"/><use transform="matrix(0.012568721064814816,0,0,0.012568721064814816,74.19316044560186,0)" xlink:href="#aw"/><use transform="matrix(0.012568721064814816,0,0,0.012568721064814816,80.80430772569446,0)" xlink:href="#ar"/><use transform="matrix(0.012568721064814816,0,0,0.012568721064814816,88.99911385995372,0)" xlink:href="#aj"/><use transform="matrix(0.012568721064814816,0,0,0.012568721064814816,104.79799623842597,0)" xlink:href="#ak"/><use transform="matrix(0.012568721064814816,0,0,0.012568721064814816,114.90324797453708,0)" xlink:href="#aE"/><use transform="matrix(0.012568721064814816,0,0,0.012568721064814816,131.34313512731484,0)" xlink:href="#ak"/><use transform="matrix(0.012568721064814816,0,0,0.012568721064814816,140.61885127314818,0)" xlink:href="#am"/><use transform="matrix(0.012568721064814816,0,0,0.012568721064814816,155.4876482928241,0)" xlink:href="#bq"/><use transform="matrix(0.012568721064814816,0,0,0.012568721064814816,169.53947844328707,0)" xlink:href="#al"/><use transform="matrix(0.012568721064814816,0,0,0.012568721064814816,175.78613281250003,0)" xlink:href="#bh"/><use transform="matrix(0.012568721064814816,0,0,0.012568721064814816,198.3344184027778,0)" xlink:href="#aj"/><use transform="matrix(0.012568721064814816,0,0,0.012568721064814816,214.13330078125003,0)" xlink:href="#bi"/><use transform="matrix(0.012568721064814816,0,0,0.012568721064814816,232.92353877314818,0)" xlink:href="#al"/><use transform="matrix(0.012568721064814816,0,0,0.012568721064814816,239.17019314236114,0)" xlink:href="#ar"/><use transform="matrix(0.012568721064814816,0,0,0.012568721064814816,247.3649992766204,0)" xlink:href="#aj"/><use transform="matrix(0.012568721064814816,0,0,0.012568721064814816,263.1638816550926,0)" xlink:href="#aA"/><use transform="matrix(0.012568721064814816,0,0,0.012568721064814816,272.5527162905093,0)" xlink:href="#aB"/><use transform="matrix(0.012568721064814816,0,0,0.012568721064814816,281.92898220486114,0)" xlink:href="#aq"/></g><g id="T"><use transform="matrix(0.012568721064814816,0,0,0.012568721064814816,0,0)" xlink:href="#bi"/><use transform="matrix(0.012568721064814816,0,0,0.012568721064814816,18.79023799189815,0)" xlink:href="#al"/><use transform="matrix(0.012568721064814816,0,0,0.012568721064814816,25.036892361111114,0)" xlink:href="#ar"/><use transform="matrix(0.012568721064814816,0,0,0.012568721064814816,33.231698495370374,0)" xlink:href="#aj"/></g><g id="U"><use transform="matrix(0.012568721064814816,0,0,0.012568721064814816,0,0)" xlink:href="#bi"/><use transform="matrix(0.012568721064814816,0,0,0.012568721064814816,18.79023799189815,0)" xlink:href="#al"/><use transform="matrix(0.012568721064814816,0,0,0.012568721064814816,25.036892361111114,0)" xlink:href="#ar"/><use transform="matrix(0.012568721064814816,0,0,0.012568721064814816,33.231698495370374,0)" xlink:href="#aj"/></g><g id="V"><use transform="matrix(0.012568721064814816,0,0,0.012568721064814816,0,0)" xlink:href="#al"/><use transform="matrix(0.012568721064814816,0,0,0.012568721064814816,6.246654369212964,0)" xlink:href="#ao"/><use transform="matrix(0.012568721064814816,0,0,0.012568721064814816,22.020399305555557,0)" xlink:href="#aq"/></g><g id="W"><use transform="matrix(0.012568721064814816,0,0,0.012568721064814816,0,0)" xlink:href="#as"/><use transform="matrix(0.012568721064814816,0,0,0.012568721064814816,15.220721209490742,0)" xlink:href="#ai"/><use transform="matrix(0.012568721064814816,0,0,0.012568721064814816,30.4540111400463,0)" xlink:href="#bh"/><use transform="matrix(0.012568721064814816,0,0,0.012568721064814816,53.00229673032408,0)" xlink:href="#ay"/><use transform="matrix(0.012568721064814816,0,0,0.012568721064814816,68.77604166666667,0)" xlink:href="#ax"/><use transform="matrix(0.012568721064814816,0,0,0.012568721064814816,83.59456380208334,0)" xlink:href="#ak"/></g><path fill="#333" d="M356-670L245 0H65l247-1490h180l-94 565c97-150 219-207 362-207 226 0 365 139 318 422L960 0H779l116-695c29-174-53-275-208-275-158 0-299 107-331 300" id="br"/><g id="X"><use transform="matrix(0.012568721064814816,0,0,0.012568721064814816,0,0)" xlink:href="#aF"/><use transform="matrix(0.012568721064814816,0,0,0.012568721064814816,8.84837962962963,0)" xlink:href="#ax"/><use transform="matrix(0.012568721064814816,0,0,0.012568721064814816,23.666901765046298,0)" xlink:href="#ap"/><use transform="matrix(0.012568721064814816,0,0,0.012568721064814816,38.38487413194445,0)" xlink:href="#br"/><use transform="matrix(0.012568721064814816,0,0,0.012568721064814816,53.60559534143519,0)" xlink:href="#aj"/><use transform="matrix(0.012568721064814816,0,0,0.012568721064814816,69.40447771990742,0)" xlink:href="#aq"/></g><g id="Y"><use transform="matrix(0.012568721064814816,0,0,0.012568721064814816,0,0)" xlink:href="#ao"/><use transform="matrix(0.012568721064814816,0,0,0.012568721064814816,15.773744936342595,0)" xlink:href="#aj"/><use transform="matrix(0.012568721064814816,0,0,0.012568721064814816,31.57262731481482,0)" xlink:href="#ar"/><use transform="matrix(0.012568721064814816,0,0,0.012568721064814816,39.767433449074076,0)" xlink:href="#ax"/><use transform="matrix(0.012568721064814816,0,0,0.012568721064814816,54.58595558449075,0)" xlink:href="#ar"/><use transform="matrix(0.012568721064814816,0,0,0.012568721064814816,63.032136140046305,0)" xlink:href="#al"/><use transform="matrix(0.012568721064814816,0,0,0.012568721064814816,69.27879050925927,0)" xlink:href="#bh"/><use transform="matrix(0.012568721064814816,0,0,0.012568721064814816,91.82707609953705,0)" xlink:href="#ax"/></g><g id="Z"><use transform="matrix(0.012568721064814816,0,0,0.012568721064814816,0,0)" xlink:href="#ao"/><use transform="matrix(0.012568721064814816,0,0,0.012568721064814816,15.773744936342595,0)" xlink:href="#am"/><use transform="matrix(0.012568721064814816,0,0,0.012568721064814816,31.22070312500001,0)" xlink:href="#ap"/><use transform="matrix(0.012568721064814816,0,0,0.012568721064814816,45.93867549189816,0)" xlink:href="#bj"/><use transform="matrix(0.012568721064814816,0,0,0.012568721064814816,62.78076171875002,0)" xlink:href="#aj"/><use transform="matrix(0.012568721064814816,0,0,0.012568721064814816,78.57964409722224,0)" xlink:href="#ak"/><use transform="matrix(0.012568721064814816,0,0,0.012568721064814816,88.68489583333336,0)" xlink:href="#ay"/><use transform="matrix(0.012568721064814816,0,0,0.012568721064814816,104.45864076967597,0)" xlink:href="#ax"/><use transform="matrix(0.012568721064814816,0,0,0.012568721064814816,119.27716290509262,0)" xlink:href="#ak"/><use transform="matrix(0.012568721064814816,0,0,0.012568721064814816,128.55287905092595,0)" xlink:href="#am"/><use transform="matrix(0.012568721064814816,0,0,0.012568721064814816,143.99983723958337,0)" xlink:href="#aq"/></g><g id="aa"><use transform="matrix(0.012568721064814816,0,0,0.012568721064814816,0,0)" xlink:href="#ao"/><use transform="matrix(0.012568721064814816,0,0,0.012568721064814816,15.773744936342595,0)" xlink:href="#am"/><use transform="matrix(0.012568721064814816,0,0,0.012568721064814816,31.22070312500001,0)" xlink:href="#ap"/><use transform="matrix(0.012568721064814816,0,0,0.012568721064814816,45.93867549189816,0)" xlink:href="#bi"/><use transform="matrix(0.012568721064814816,0,0,0.012568721064814816,64.7289134837963,0)" xlink:href="#aw"/><use transform="matrix(0.012568721064814816,0,0,0.012568721064814816,70.96299913194446,0)" xlink:href="#al"/><use transform="matrix(0.012568721064814816,0,0,0.012568721064814816,77.20965350115742,0)" xlink:href="#ax"/><use transform="matrix(0.012568721064814816,0,0,0.012568721064814816,92.02817563657409,0)" xlink:href="#as"/><use transform="matrix(0.012568721064814816,0,0,0.012568721064814816,107.24889684606482,0)" xlink:href="#ar"/><use transform="matrix(0.012568721064814816,0,0,0.012568721064814816,115.4437029803241,0)" xlink:href="#ax"/><use transform="matrix(0.012568721064814816,0,0,0.012568721064814816,130.26222511574076,0)" xlink:href="#aq"/></g><g id="ab"><use transform="matrix(0.012568721064814816,0,0,0.012568721064814816,0,0)" xlink:href="#bh"/><use transform="matrix(0.012568721064814816,0,0,0.012568721064814816,22.548285590277782,0)" xlink:href="#am"/><use transform="matrix(0.012568721064814816,0,0,0.012568721064814816,37.99524377893519,0)" xlink:href="#ao"/><use transform="matrix(0.012568721064814816,0,0,0.012568721064814816,53.768988715277786,0)" xlink:href="#al"/><use transform="matrix(0.012568721064814816,0,0,0.012568721064814816,60.01564308449075,0)" xlink:href="#aF"/><use transform="matrix(0.012568721064814816,0,0,0.012568721064814816,69.61814597800927,0)" xlink:href="#al"/><use transform="matrix(0.012568721064814816,0,0,0.012568721064814816,75.86480034722223,0)" xlink:href="#ap"/><use transform="matrix(0.012568721064814816,0,0,0.012568721064814816,90.58277271412038,0)" xlink:href="#aj"/><use transform="matrix(0.012568721064814816,0,0,0.012568721064814816,106.38165509259261,0)" xlink:href="#ak"/><use transform="matrix(0.012568721064814816,0,0,0.012568721064814816,116.08470775462965,0)" xlink:href="#bi"/><use transform="matrix(0.012568721064814816,0,0,0.012568721064814816,134.8749457465278,0)" xlink:href="#al"/><use transform="matrix(0.012568721064814816,0,0,0.012568721064814816,141.12160011574076,0)" xlink:href="#ar"/><use transform="matrix(0.012568721064814816,0,0,0.012568721064814816,149.31640625,0)" xlink:href="#aj"/><use transform="matrix(0.012568721064814816,0,0,0.012568721064814816,165.11528862847223,0)" xlink:href="#aA"/><use transform="matrix(0.012568721064814816,0,0,0.012568721064814816,174.50412326388889,0)" xlink:href="#aB"/><use transform="matrix(0.012568721064814816,0,0,0.012568721064814816,183.88038917824073,0)" xlink:href="#aq"/></g><g id="ac"><use transform="matrix(0.012568721064814816,0,0,0.012568721064814816,0,0)" xlink:href="#ap"/><use transform="matrix(0.012568721064814816,0,0,0.012568721064814816,14.71797236689815,0)" xlink:href="#am"/><use transform="matrix(0.012568721064814816,0,0,0.012568721064814816,30.16493055555556,0)" xlink:href="#as"/><use transform="matrix(0.012568721064814816,0,0,0.012568721064814816,45.385651765046305,0)" xlink:href="#ah"/><use transform="matrix(0.012568721064814816,0,0,0.012568721064814816,58.959870515046305,0)" xlink:href="#ai"/><use transform="matrix(0.012568721064814816,0,0,0.012568721064814816,74.19316044560186,0)" xlink:href="#aw"/><use transform="matrix(0.012568721064814816,0,0,0.012568721064814816,80.80430772569446,0)" xlink:href="#ar"/><use transform="matrix(0.012568721064814816,0,0,0.012568721064814816,88.99911385995372,0)" xlink:href="#aj"/><use transform="matrix(0.012568721064814816,0,0,0.012568721064814816,104.79799623842597,0)" xlink:href="#ak"/><use transform="matrix(0.012568721064814816,0,0,0.012568721064814816,114.501048900463,0)" xlink:href="#bi"/><use transform="matrix(0.012568721064814816,0,0,0.012568721064814816,133.29128689236114,0)" xlink:href="#al"/><use transform="matrix(0.012568721064814816,0,0,0.012568721064814816,139.5379412615741,0)" xlink:href="#ar"/><use transform="matrix(0.012568721064814816,0,0,0.012568721064814816,147.73274739583337,0)" xlink:href="#aj"/><use transform="matrix(0.012568721064814816,0,0,0.012568721064814816,163.5316297743056,0)" xlink:href="#aA"/><use transform="matrix(0.012568721064814816,0,0,0.012568721064814816,172.92046440972226,0)" xlink:href="#aB"/><use transform="matrix(0.012568721064814816,0,0,0.012568721064814816,182.2967303240741,0)" xlink:href="#aq"/></g><g id="ad"><use transform="matrix(0.010054976851851853,0,0,0.010054976851851853,0,0)" xlink:href="#bp"/><use transform="matrix(0.010054976851851853,0,0,0.010054976851851853,8.375795717592593,0)" xlink:href="#bo"/><use transform="matrix(0.010054976851851853,0,0,0.010054976851851853,14.308232060185187,0)" xlink:href="#bp"/></g><path d="M441-652l13-317-268 171-72-126 282-146-282-146 72-128 268 171-13-317h144l-12 317 267-171 72 128-282 146 282 146-72 126-267-171 12 317H441" id="bs"/><g id="ae"><use transform="matrix(0.010054976851851853,0,0,0.010054976851851853,0,0)" xlink:href="#bn"/><use transform="matrix(0.010054976851851853,0,0,0.010054976851851853,12.991030092592593,0)" xlink:href="#bo"/><use transform="matrix(0.010054976851851853,0,0,0.010054976851851853,18.923466435185187,0)" xlink:href="#bs"/></g><g id="af"><use transform="matrix(0.010054976851851853,0,0,0.010054976851851853,0,0)" xlink:href="#bp"/><use transform="matrix(0.010054976851851853,0,0,0.010054976851851853,8.375795717592593,0)" xlink:href="#bo"/><use transform="matrix(0.010054976851851853,0,0,0.010054976851851853,14.308232060185187,0)" xlink:href="#bs"/></g></defs></g></svg>